<?xml version="1.0" encoding="utf-8"?>
<!-- Generator: Adobe Illustrator 21.0.1, SVG Export Plug-In . SVG Version: 6.00 Build 0)  -->
<!DOCTYPE svg PUBLIC "-//W3C//DTD SVG 1.1//EN" "http://www.w3.org/Graphics/SVG/1.1/DTD/svg11.dtd">
<svg version="1.1" id="Слой_1" xmlns="http://www.w3.org/2000/svg" xmlns:xlink="http://www.w3.org/1999/xlink" x="0px" y="0px"
	 viewBox="0 0 99.2 99.2" style="enable-background:new 0 0 99.2 99.2;" xml:space="preserve">
<style type="text/css">
	.st0{fill:#231F20;}
</style>
<g>
	<path class="st0" d="M86.7,91.1H12.6c-0.4,0-0.7-0.3-0.7-0.7V8.8c0-0.4,0.3-0.7,0.7-0.7h74.1c0.4,0,0.7,0.3,0.7,0.7v81.6
		C87.4,90.8,87.1,91.1,86.7,91.1z M13.3,89.7H86V9.5H13.3V89.7z"/>
	<path class="st0" d="M42.2,87.2H16.5c-0.4,0-0.7-0.3-0.7-0.7V12.7c0-0.4,0.3-0.7,0.7-0.7h25.7c0.4,0,0.7,0.3,0.7,0.7v73.8
		C42.9,86.9,42.6,87.2,42.2,87.2z M17.2,85.8h24.3V13.4H17.2V85.8z"/>
	<path class="st0" d="M82.8,87.2H47.3c-0.4,0-0.7-0.3-0.7-0.7V12.7c0-0.4,0.3-0.7,0.7-0.7h35.5c0.4,0,0.7,0.3,0.7,0.7v73.8
		C83.5,86.9,83.2,87.2,82.8,87.2z M48,85.8h34.1V13.4H48V85.8z"/>
	<path class="st0" d="M39.3,55.7h-2.6c-0.4,0-0.7-0.3-0.7-0.7V44.2c0-0.4,0.3-0.7,0.7-0.7h2.6c0.4,0,0.7,0.3,0.7,0.7V55
		C40,55.4,39.7,55.7,39.3,55.7z M37.4,54.3h1.2v-9.4h-1.2V54.3z"/>
	<path class="st0" d="M21.2,78.2c-0.2,0-0.3-0.1-0.4-0.2c-0.3-0.2-0.3-0.7-0.1-1l16.1-19.2c0.2-0.3,0.7-0.3,1-0.1
		c0.3,0.2,0.3,0.7,0.1,1L21.7,77.9C21.6,78.1,21.4,78.2,21.2,78.2z"/>
	<path class="st0" d="M29.4,78.2c-0.2,0-0.3-0.1-0.4-0.2c-0.3-0.2-0.3-0.7-0.1-1l6.9-8.2c0.2-0.3,0.7-0.3,1-0.1
		c0.3,0.2,0.3,0.7,0.1,1L29.9,78C29.8,78.1,29.6,78.2,29.4,78.2z"/>
	<path class="st0" d="M60.9,40.6c-0.2,0-0.3-0.1-0.4-0.2c-0.3-0.2-0.3-0.7-0.1-1l7.6-9.1c0.2-0.3,0.7-0.3,1-0.1
		c0.3,0.2,0.3,0.7,0.1,1l-7.6,9.1C61.3,40.5,61.1,40.6,60.9,40.6z"/>
	<path class="st0" d="M53.4,39.7c-0.2,0-0.3-0.1-0.4-0.2c-0.3-0.2-0.3-0.7-0.1-1L69,19.4c0.2-0.3,0.7-0.3,1-0.1
		c0.3,0.2,0.3,0.7,0.1,1L53.9,39.4C53.8,39.6,53.6,39.7,53.4,39.7z"/>
</g>
</svg>
