<?xml version="1.0" encoding="UTF-8"?>
<!DOCTYPE svg PUBLIC "-//W3C//DTD SVG 1.1//EN" "http://www.w3.org/Graphics/SVG/1.1/DTD/svg11.dtd">
<!-- Creator: CorelDRAW X8 -->
<svg xmlns="http://www.w3.org/2000/svg" xml:space="preserve" width="156mm" height="110mm" version="1.1" style="shape-rendering:geometricPrecision; text-rendering:geometricPrecision; image-rendering:optimizeQuality; fill-rule:evenodd; clip-rule:evenodd"
viewBox="0 0 15600 11000"
 xmlns:xlink="http://www.w3.org/1999/xlink">
 <defs>
  <style type="text/css">
   <![CDATA[
    .str0 {stroke:#050007;stroke-width:10.28}
    .str1 {stroke:#050007;stroke-width:10.28;stroke-linejoin:round}
    .str2 {stroke:#9DC388;stroke-width:90.68;stroke-linecap:round}
    .fil4 {fill:none}
    .fil6 {fill:#234214}
    .fil5 {fill:#9DC388}
    .fil3 {fill:#E0F2F9}
    .fil2 {fill:#F2F2F2}
    .fil1 {fill:#F2F2F2}
    .fil0 {fill:white}
   ]]>
  </style>
 </defs>
 <g id="Слой_x0020_1">
  <metadata id="CorelCorpID_0Corel-Layer"/>
  <polygon class="fil0" points="5400,189 8,2706 10,5389 2076,6705 2076,7364 5353,9450 6035,9117 8998,10977 14929,8200 14929,7136 12901,5882 15503,4658 15503,1646 14815,1210 14413,1396 12291,26 8279,1895 8279,1579 7593,1141 7192,1329 "/>
  <polygon class="fil1" points="11692,6461 11692,5285 14325,4041 13214,3323 12293,2722 11026,3310 12106,3987 12101,4838 11960,4905 10116,3728 9045,4228 10054,4881 10054,5804 9911,5873 8082,4725 7492,4975 4870,3332 4870,3225 1219,4939 2221,5552 2225,4830 2348,4762 3509,5547 3511,7114 4040,7447 4040,5983 4163,5914 5333,6703 5333,8274 6063,7925 9008,9765 13599,7631 "/>
  <polygon class="fil2" points="9052,4228 9776,3889 9776,1951 8864,2395 8864,4105 "/>
  <polygon class="fil3" points="4756,6457 5207,6761 5207,8402 4756,8122 "/>
  <polygon class="fil3" points="4170,6077 4548,6318 4548,7990 4174,7758 "/>
  <polygon class="fil3" points="2936,5304 3377,5601 3377,7251 2934,6971 "/>
  <line class="fil4 str0" x1="3" y1="2706" x2="5397" y2= "191" />
  <line class="fil4 str0" x1="254" y1="2699" x2="5361" y2= "319" />
  <line class="fil4 str0" x1="5547" y1="1649" x2="6131" y2= "1378" />
  <line class="fil4 str0" x1="4870" y1="1226" x2="5455" y2= "954" />
  <line class="fil4 str0" x1="7186" y1="1329" x2="5395" y2= "189" />
  <line class="fil4 str0" x1="8171" y1="2076" x2="5362" y2= "312" />
  <line class="fil4 str0" x1="5361" y1="314" x2="5361" y2= "998" />
  <line class="fil4 str0" x1="6130" y1="1378" x2="6130" y2= "2467" />
  <line class="fil4 str0" x1="5547" y1="1649" x2="5547" y2= "3756" />
  <line class="fil4 str0" x1="4" y1="2702" x2="4" y2= "5389" />
  <line class="fil4 str0" x1="1219" y1="4939" x2="4870" y2= "3225" />
  <line class="fil4 str0" x1="9911" y1="5873" x2="8082" y2= "4725" />
  <line class="fil4 str0" x1="2071" y1="6707" x2="3" y2= "5388" />
  <line class="fil4 str0" x1="2223" y1="5710" x2="515" y2= "4657" />
  <line class="fil4 str0" x1="2223" y1="5552" x2="650" y2= "4592" />
  <line class="fil4 str0" x1="8158" y1="1951" x2="12285" y2= "26" />
  <line class="fil4 str0" x1="10264" y1="1097" x2="12293" y2= "149" />
  <line class="fil4 str0" x1="8305" y1="2015" x2="10119" y2= "1166" />
  <line class="fil4 str0" x1="9911" y1="4943" x2="8610" y2= "4090" />
  <line class="fil4 str0" x1="8610" y1="4090" x2="8744" y2= "4027" />
  <line class="fil4 str0" x1="10054" y1="4881" x2="8744" y2= "4027" />
  <line class="fil4 str0" x1="9911" y1="4943" x2="9911" y2= "5873" />
  <line class="fil4 str0" x1="9913" y1="4948" x2="10054" y2= "4881" />
  <line class="fil4 str0" x1="10054" y1="4881" x2="10054" y2= "5806" />
  <line class="fil4 str0" x1="10119" y1="1166" x2="10119" y2= "3736" />
  <line class="fil4 str0" x1="9052" y1="4228" x2="10121" y2= "3728" />
  <line class="fil4 str0" x1="11965" y1="4905" x2="10121" y2= "3736" />
  <line class="fil4 str0" x1="11026" y1="3310" x2="12293" y2= "2722" />
  <line class="fil4 str0" x1="11965" y1="4056" x2="10563" y2= "3186" />
  <line class="fil4 str0" x1="12106" y1="3987" x2="10704" y2= "3117" />
  <line class="fil4 str0" x1="11965" y1="4056" x2="11965" y2= "4905" />
  <line class="fil4 str0" x1="15269" y1="2065" x2="12293" y2= "149" />
  <line class="fil4 str0" x1="15389" y1="2140" x2="15501" y2= "2089" />
  <line class="fil4 str0" x1="14330" y1="4041" x2="12293" y2= "2722" />
  <line class="fil4 str0" x1="12895" y1="5882" x2="15499" y2= "4664" />
  <line class="fil4 str0" x1="11962" y1="5304" x2="15010" y2= "3851" />
  <line class="fil4 str0" x1="11697" y1="5285" x2="14895" y2= "3777" />
  <line class="fil4 str0" x1="13599" y1="7631" x2="11697" y2= "6453" />
  <line class="fil4 str0" x1="14672" y1="7130" x2="11697" y2= "5283" />
  <line class="fil4 str0" x1="14924" y1="7137" x2="14924" y2= "8201" />
  <line class="fil4 str0" x1="5348" y1="8413" x2="5348" y2= "9450" />
  <line class="fil4 str0" x1="5207" y1="6763" x2="5209" y2= "8547" />
  <line class="fil4 str0" x1="6035" y1="8078" x2="6035" y2= "9124" />
  <line class="fil4 str0" x1="5209" y1="8335" x2="6070" y2= "7925" />
  <line class="fil4 str0" x1="5348" y1="9446" x2="5219" y2= "9361" />
  <line class="fil4 str0" x1="5344" y1="8410" x2="6037" y2= "8077" />
  <line class="fil4 str0" x1="5348" y1="9441" x2="6035" y2= "9113" />
  <line class="fil4 str0" x1="8992" y1="9937" x2="6037" y2= "8077" />
  <line class="fil4 str0" x1="8992" y1="10977" x2="6032" y2= "9117" />
  <line class="fil4 str0" x1="9008" y1="9765" x2="6070" y2= "7925" />
  <line class="fil4 str0" x1="8989" y1="9937" x2="14924" y2= "7137" />
  <line class="fil4 str0" x1="8989" y1="10970" x2="12951" y2= "9119" />
  <line class="fil4 str0" x1="9008" y1="9765" x2="14672" y2= "7130" />
  <line class="fil4 str0" x1="12951" y1="9119" x2="14924" y2= "8201" />
  <line class="fil4 str0" x1="2071" y1="6336" x2="2071" y2= "7365" />
  <line class="fil4 str0" x1="5348" y1="8413" x2="5209" y2= "8324" />
  <line class="fil4 str0" x1="5219" y1="9361" x2="2064" y2= "7353" />
  <line class="fil4 str0" x1="2067" y1="6336" x2="2223" y2= "6262" />
  <line class="fil4 str0" x1="2346" y1="6374" x2="2724" y2= "6187" />
  <line class="fil4 str0" x1="2346" y1="6200" x2="2715" y2= "6025" />
  <line class="fil4 str0" x1="2715" y1="6025" x2="2342" y2= "5784" />
  <line class="fil4 str0" x1="2223" y1="4830" x2="2223" y2= "6662" />
  <line class="fil4 str0" x1="2724" y1="5163" x2="2724" y2= "6978" />
  <line class="fil4 str0" x1="2807" y1="5219" x2="2807" y2= "7031" />
  <line class="fil4 str0" x1="3379" y1="5607" x2="3379" y2= "7391" />
  <line class="fil4 str0" x1="3513" y1="5545" x2="3513" y2= "7103" />
  <line class="fil4 str0" x1="3381" y1="7172" x2="3517" y2= "7107" />
  <line class="fil4 str0" x1="4047" y1="5978" x2="4047" y2= "7812" />
  <line class="fil4 str0" x1="5339" y1="6705" x2="5341" y2= "8276" />
  <line class="fil4 str0" x1="3515" y1="5545" x2="2348" y2= "4762" />
  <line class="fil4 str0" x1="2223" y1="4830" x2="2348" y2= "4762" />
  <line class="fil4 str0" x1="3379" y1="5608" x2="3515" y2= "5545" />
  <line class="fil4 str0" x1="2809" y1="7031" x2="2934" y2= "6971" />
  <line class="fil4 str0" x1="2934" y1="5304" x2="2934" y2= "6971" />
  <line class="fil4 str0" x1="4548" y1="6318" x2="4548" y2= "8129" />
  <line class="fil4 str0" x1="4631" y1="6374" x2="4631" y2= "8182" />
  <line class="fil4 str0" x1="5335" y1="6701" x2="4166" y2= "5916" />
  <line class="fil4 str0" x1="4041" y1="5976" x2="4170" y2= "5916" />
  <line class="fil4 str0" x1="5203" y1="6770" x2="5339" y2= "6705" />
  <line class="fil4 str0" x1="5210" y1="6765" x2="4049" y2= "5981" />
  <line class="fil4 str0" x1="4756" y1="6457" x2="4756" y2= "8122" />
  <line class="fil4 str0" x1="4172" y1="6070" x2="4172" y2= "7753" />
  <line class="fil4 str0" x1="4047" y1="7812" x2="4170" y2= "7753" />
  <g id="_931559856">
   <line class="fil4 str0" x1="9716" y1="2069" x2="9776" y2= "1951" />
   <g>
    <line class="fil4 str0" x1="8936" y1="2429" x2="8936" y2= "4152" />
    <line class="fil4 str0" x1="9716" y1="2069" x2="9716" y2= "3917" />
    <line class="fil4 str0" x1="8936" y1="2436" x2="9716" y2= "2069" />
    <line class="fil4 str0" x1="9776" y1="1951" x2="9776" y2= "3889" />
    <line class="fil4 str0" x1="9776" y1="1951" x2="8864" y2= "2395" />
    <line class="fil4 str0" x1="8864" y1="2395" x2="8864" y2= "4105" />
    <line class="fil4 str0" x1="8864" y1="2395" x2="8936" y2= "2429" />
    <line class="fil4 str0" x1="8936" y1="2976" x2="9716" y2= "2610" />
    <line class="fil4 str0" x1="8936" y1="3202" x2="9716" y2= "2835" />
   </g>
  </g>
  <line class="fil4 str0" x1="2721" y1="5856" x2="2344" y2= "5616" />
  <line class="fil4 str0" x1="11965" y1="4054" x2="12106" y2= "3987" />
  <line class="fil4 str0" x1="11965" y1="4905" x2="12106" y2= "4838" />
  <line class="fil4 str0" x1="12106" y1="3987" x2="12106" y2= "4843" />
  <line class="fil4 str0" x1="15010" y1="3851" x2="14895" y2= "3777" />
  <line class="fil4 str0" x1="4047" y1="7812" x2="5209" y2= "8547" />
  <line class="fil4 str0" x1="4754" y1="8124" x2="5207" y2= "8410" />
  <line class="fil4 str0" x1="4170" y1="7754" x2="4548" y2= "7993" />
  <line class="fil4 str0" x1="3511" y1="7109" x2="4045" y2= "7447" />
  <line class="fil4 str0" x1="2223" y1="6662" x2="3381" y2= "7391" />
  <line class="fil4 str0" x1="4631" y1="8182" x2="4756" y2= "8122" />
  <line class="fil4 str0" x1="11699" y1="6461" x2="11699" y2= "5285" />
  <line class="fil4 str0" x1="11962" y1="5304" x2="14924" y2= "7137" />
  <line class="fil4 str0" x1="8989" y1="9937" x2="8989" y2= "10981" />
  <line class="fil4 str0" x1="12293" y1="2722" x2="12293" y2= "149" />
  <line class="fil4 str0" x1="8171" y1="2076" x2="8610" y2= "4098" />
  <line class="fil4 str0" x1="8305" y1="2015" x2="8744" y2= "4027" />
  <line class="fil4 str0" x1="10119" y1="1166" x2="10563" y2= "3186" />
  <line class="fil4 str0" x1="10563" y1="3186" x2="10704" y2= "3117" />
  <line class="fil4 str0" x1="10264" y1="1097" x2="10704" y2= "3117" />
  <line class="fil4 str0" x1="254" y1="2699" x2="650" y2= "4592" />
  <line class="fil4 str0" x1="102" y1="2769" x2="515" y2= "4660" />
  <line class="fil4 str0" x1="102" y1="2769" x2="3" y2= "2706" />
  <line class="fil4 str0" x1="515" y1="4657" x2="650" y2= "4592" />
  <line class="fil4 str0" x1="6131" y1="1378" x2="5455" y2= "954" />
  <line class="fil4 str0" x1="4870" y1="1226" x2="5547" y2= "1649" />
  <line class="fil4 str0" x1="4870" y1="2737" x2="5547" y2= "3160" />
  <line class="fil4 str0" x1="4870" y1="2643" x2="5547" y2= "3066" />
  <line class="fil4 str0" x1="4870" y1="1226" x2="4870" y2= "3332" />
  <line class="fil4 str0" x1="4870" y1="3332" x2="7492" y2= "4975" />
  <line class="fil4 str0" x1="5209" y1="2949" x2="5209" y2= "3544" />
  <line class="fil4 str0" x1="5209" y1="1438" x2="5209" y2= "2854" />
  <line class="fil4 str0" x1="5257" y1="2122" x2="5257" y2= "2279" />
  <line class="fil4 str0" x1="5156" y1="2044" x2="5156" y2= "2201" />
  <line class="fil4 str0" x1="5257" y1="3227" x2="5257" y2= "3385" />
  <line class="fil4 str0" x1="5156" y1="3149" x2="5156" y2= "3305" />
  <line class="fil4 str0" x1="6224" y1="3160" x2="6815" y2= "2892" />
  <line class="fil4 str0" x1="7492" y1="4975" x2="8082" y2= "4725" />
  <line class="fil4 str0" x1="6224" y1="3157" x2="6225" y2= "4179" />
  <line class="fil4 str0" x1="8082" y1="3681" x2="6130" y2= "2467" />
  <line class="fil4 str0" x1="7498" y1="3955" x2="5547" y2= "2740" />
  <line class="fil4 str0" x1="6819" y1="3533" x2="7403" y2= "3260" />
  <line class="fil4 str0" x1="8082" y1="3681" x2="8082" y2= "4725" />
  <line class="fil4 str0" x1="6821" y1="3533" x2="6823" y2= "4554" />
  <line class="fil4 str0" x1="6823" y1="4315" x2="6225" y2= "3940" />
  <line class="fil4 str0" x1="6718" y1="3616" x2="6327" y2= "3372" />
  <line class="fil4 str0" x1="6224" y1="3347" x2="5547" y2= "2923" />
  <line class="fil4 str0" x1="5551" y1="2737" x2="6130" y2= "2467" />
  <line class="fil4 str0" x1="5893" y1="2956" x2="5893" y2= "3974" />
  <line class="fil4 str0" x1="5943" y1="3538" x2="5943" y2= "3696" />
  <line class="fil4 str0" x1="5844" y1="3461" x2="5844" y2= "3616" />
  <ellipse class="fil4 str0" transform="matrix(0.942295 -0.328067 0.328067 0.942295 5717 2934.02)" rx="18" ry="22"/>
  <ellipse class="fil4 str0" transform="matrix(0.901586 -0.427445 0.427445 0.901586 6042.83 3143.96)" rx="18" ry="22"/>
  <ellipse class="fil4 str0" cx="6546" cy="3195" rx="83" ry="65"/>
  <ellipse class="fil4 str0" cx="6804" cy="3070" rx="83" ry="65"/>
  <ellipse class="fil4 str0" cx="6804" cy="3341" rx="83" ry="65"/>
  <ellipse class="fil4 str0" cx="7061" cy="3216" rx="83" ry="65"/>
  <line class="fil4 str0" x1="7492" y1="3955" x2="8082" y2= "3681" />
  <line class="fil4 str0" x1="7159" y1="3745" x2="7159" y2= "4771" />
  <line class="fil4 str0" x1="7210" y1="4148" x2="7210" y2= "4306" />
  <line class="fil4 str0" x1="7110" y1="4070" x2="7110" y2= "4228" />
  <line class="fil4 str0" x1="7498" y1="3955" x2="7498" y2= "4975" />
  <line class="fil4 str0" x1="15385" y1="2140" x2="15010" y2= "3851" />
  <line class="fil4 str0" x1="15269" y1="2065" x2="14895" y2= "3777" />
  <line class="fil4 str0" x1="2934" y1="6971" x2="3379" y2= "7251" />
  <line class="fil4 str0" x1="2221" y1="6662" x2="2346" y2= "6602" />
  <line class="fil4 str0" x1="3381" y1="7172" x2="4047" y2= "7592" />
  <line class="fil4 str0" x1="2071" y1="6336" x2="2225" y2= "6434" />
  <line class="fil4 str0" x1="9911" y1="5873" x2="10054" y2= "5806" />
  <polygon class="fil3" points="2346,4908 2724,5163 2721,6844 2346,6605 "/>
  <line class="fil4 str0" x1="2346" y1="6374" x2="2724" y2= "6187" />
  <line class="fil4 str0" x1="2346" y1="6200" x2="2715" y2= "6025" />
  <line class="fil4 str0" x1="2715" y1="6025" x2="2342" y2= "5784" />
  <line class="fil4 str0" x1="2721" y1="5856" x2="2344" y2= "5616" />
  <circle class="fil5" cx="2802" cy="6072" r="335"/>
  <path class="fil6" d="M2802 5887l0 0c-43,0 -74,22 -92,47 -29,42 -20,63 -22,114l-22 0 0 208 134 0 134 0 0 -208 -22 0c-1,-51 8,-72 -21,-114 -15,-25 -46,-47 -89,-47l0 0zm0 206c14,0 27,13 27,28 0,9 -5,18 -13,23l0 34c0,8 -5,13 -12,13 -7,0 -13,-5 -13,-13l0 -34c-7,-5 -13,-13 -13,-23 -3,-15 8,-28 24,-28zm-72 -45c-2,-60 0,-119 70,-119 0,0 0,0 2,0 0,0 0,0 2,0 70,0 72,61 70,119l-72 0 -72 0z"/>
  <line class="fil4 str0" x1="15010" y1="3851" x2="14895" y2= "3777" />
  <line class="fil4 str0" x1="7492" y1="3955" x2="8082" y2= "3681" />
  <g id="_911006320">
   <path class="fil0" d="M12123 3119l0 0c-4,-28 -15,-55 -33,-82 -33,-49 -87,-88 -150,-116 -49,-20 -100,-29 -143,-27l-36 -31 39 -18 -1 -3 3 0 53 -284c0,-6 2,-9 2,-15l0 0 0 0c0,-34 -19,-67 -47,-85l-69 -40 -373 181c-13,8 -22,24 -20,40l24 268 5 0 -4 4 71 43c11,5 22,11 33,14 5,6 43,51 67,122 25,74 16,108 16,108l-2 4 24 18 -124 61 6 4 0 47 326 201 266 -127 1 -1 0 -42 6 -2 -67 -42 11 -3c2,0 61,-15 92,-51 34,-40 43,-92 24,-146z"/>
   <g>
    <ellipse class="fil4 str0" transform="matrix(0.375262 -0.924535 0.924535 0.375262 11872.9 3102.14)" rx="102" ry="185"/>
    <path class="fil4 str0" d="M11703 3026c0,-3 2,-7 3,-11 26,-61 125,-81 221,-41 96,40 154,121 129,184 -4,11 -11,20 -18,28"/>
    <ellipse class="fil4 str0" transform="matrix(0.375262 -0.924535 0.924535 0.375262 11876.4 3081.56)" rx="170" ry="256"/>
    <path class="fil4 str0" d="M11478 2965c0,0 42,45 69,123 27,78 16,110 16,110l82 62"/>
    <path class="fil4 str0" d="M11645 3254c-18,44 27,103 101,132 74,29 147,19 165,-25 2,-5 3,-11 3,-18l93 -34c0,0 59,-13 90,-49 31,-36 40,-87 22,-140"/>
    <polyline class="fil4 str0" points="11591,3220 11468,3280 11799,3477 12054,3359 11987,3318 "/>
    <polyline class="fil4 str0" points="12054,3359 12054,3401 11790,3526 11468,3327 11468,3278 "/>
    <path class="fil4 str0" d="M11799 2842l52 -284c7,-38 -11,-76 -43,-96l-67 -38 -371 179c-13,7 -20,20 -18,34l23 268"/>
    <line class="fil4 str0" x1="11752" y1="2863" x2="11793" y2= "2900" />
    <line class="fil4 str0" x1="11712" y1="2883" x2="11739" y2= "2909" />
    <line class="fil4 str0" x1="11603" y1="2934" x2="11648" y2= "2967" />
    <line class="fil4 str0" x1="11571" y1="2949" x2="11634" y2= "3003" />
    <path class="fil4 str0" d="M12081 3222c-43,74 -170,96 -291,45 -113,-45 -185,-136 -181,-215l-85 -85"/>
    <path class="fil4 str0" d="M11355 2617l84 51c38,24 85,27 126,7l290 -134"/>
    <path class="fil4 str0" d="M11375 2907l71 43c32,20 72,22 107,6l246 -114"/>
   </g>
  </g>
  <circle class="fil5" cx="4628" cy="7201" r="335"/>
  <path class="fil6" d="M4628 7016l0 0c-44,0 -74,22 -93,47 -29,42 -19,64 -21,114l-22 0 0 208 134 0 134 0 0 -208 -22 0c-2,-50 7,-72 -22,-114 -14,-23 -45,-47 -88,-47l0 0zm0 208c14,0 27,13 27,27 0,9 -6,19 -13,24l0 34c0,8 -5,13 -12,13 -8,0 -13,-5 -13,-13l0 -34c-7,-5 -13,-13 -13,-24 -3,-14 9,-27 24,-27zm-73 -47c-1,-59 0,-119 71,-119 0,0 0,0 2,0 2,0 0,0 2,0 70,0 72,61 70,119l-72 0 -73 0z"/>
  <g id="_911002128">
   <path class="fil0" d="M12497 6966c0,0 -2,0 -2,-2l0 0 -110 -65 87 -424c5,-29 -7,-56 -33,-70l-1171 -684c-21,-13 -45,-17 -66,-11 -4,0 -8,2 -11,2 -15,3 -33,5 -51,16 -13,7 -25,16 -38,27 -40,36 -67,87 -80,143l-39 195 -105 -58c-22,-9 -46,-7 -67,4l-411 226c-80,44 -129,125 -129,216l0 476c0,21 13,41 33,52l150 89 2 1 2 0 0 0 0 0c9,6 18,8 27,8 9,0 20,-2 29,-8l58 -32 1154 673 0 49c0,20 9,38 27,49l158 92 0 0 0 0 0 0 0 0c9,5 18,7 29,7 9,0 20,-2 29,-7l532 -306c21,-12 36,-36 36,-61l0 -532c-2,-27 -16,-53 -40,-65z"/>
   <g>
    <path class="fil4 str1" d="M12503 7617l-532 306c-37,20 -80,-6 -80,-47l0 -476c0,-89 49,-170 127,-212l412 -224c49,-26 107,9 107,63l0 532c-2,24 -15,45 -34,58z"/>
    <path class="fil4 str1" d="M11916 7923l-157 -94c-15,-9 -24,-26 -24,-46l0 -475c0,-89 49,-171 127,-212l413 -225c23,-12 50,-10 72,2l152 91"/>
    <path class="fil4 str1" d="M10575 7056l-59 34c-36,20 -80,-5 -80,-47l0 -476c0,-88 49,-170 127,-211l425 -232"/>
    <path class="fil4 str1" d="M10988 6097l-107 -58c-20,-9 -41,-9 -63,4l-413 222c-77,42 -126,123 -126,212l0 476c0,22 12,40 29,47l153 90"/>
    <polyline class="fil4 str1" points="11735,7396 10480,6662 10926,6417 11976,7034 "/>
    <polyline class="fil4 str1" points="11735,7593 10480,6864 10480,6662 "/>
    <polyline class="fil4 str1" points="10537,6897 10537,7034 11735,7733 "/>
    <path class="fil4 str1" d="M10926 6417l109 -519c11,-54 38,-105 78,-141 11,-11 23,-20 36,-27 24,-13 45,-15 60,-18 21,-6 45,-2 65,10l1171 684c23,13 34,40 29,67l-89 426"/>
    <path class="fil4 str1" d="M12180 6922l66 -317c10,-54 38,-104 77,-141 11,-11 24,-20 37,-27 23,-12 45,-14 59,-18 11,-2 22,-4 33,-2"/>
   </g>
  </g>
  <polyline class="fil4 str2" points="5323,6412 5283,6189 5503,6149 "/>
  <polyline class="fil4 str2" points="2961,2987 3180,3044 3122,3260 "/>
  <polyline class="fil4 str2" points="11037,8120 10814,8078 10856,7859 "/>
  <line class="fil4 str0" x1="7588" y1="1143" x2="8274" y2= "1579" />
  <line class="fil4 str0" x1="8154" y1="1505" x2="8156" y2= "1505" />
  <line class="fil4 str0" x1="8160" y1="1950" x2="7874" y2= "1767" />
  <polygon class="fil2 str0" points="7754,1691 8044,1555 8044,1555 7588,1269 7300,1403 "/>
  <line class="fil4 str0" x1="7588" y1="1143" x2="7186" y2= "1329" />
  <line class="fil4 str0" x1="8274" y1="1579" x2="7874" y2= "1767" />
  <line class="fil4 str0" x1="8274" y1="1579" x2="8274" y2= "1897" />
  <line class="fil4 str0" x1="7588" y1="1269" x2="7588" y2= "1586" />
  <line class="fil4 str0" x1="14408" y1="1396" x2="12285" y2= "26" />
  <line class="fil4 str0" x1="15497" y1="1646" x2="15497" y2= "4660" />
  <line class="fil4 str0" x1="14810" y1="1210" x2="15497" y2= "1646" />
  <line class="fil4 str0" x1="15378" y1="1571" x2="15378" y2= "1571" />
  <polygon class="fil2 str0" points="14976,1758 15266,1622 14810,1336 14524,1470 "/>
  <line class="fil4 str0" x1="14810" y1="1210" x2="14408" y2= "1396" />
  <line class="fil4 str0" x1="15497" y1="1646" x2="15096" y2= "1834" />
  <line class="fil4 str0" x1="14810" y1="1336" x2="14810" y2= "1653" />
  <line class="fil4 str0" x1="15096" y1="1834" x2="15497" y2= "2089" />
  <polyline class="fil4 str2" points="12725,2576 12756,2798 12535,2829 "/>
  <polyline class="fil4 str2" points="9615,2882 9834,2939 9776,3155 "/>
  <polyline class="fil4 str2" points="12564,4525 12342,4485 12383,4264 "/>
  <line class="fil4 str0" x1="2346" y1="6602" x2="2724" y2= "6841" />
  <line class="fil4 str0" x1="2346" y1="4908" x2="2346" y2= "6602" />
  <g id="_910999216">
   <path class="fil0" d="M9450 8737c0,-2 0,-4 -2,-4l-300 -202 0 -742 0 0 0 0c0,-2 0,-4 -2,-4l-968 -620c-2,-2 -4,-2 -6,0l-50 23 0 0 0 0c-2,0 -2,2 -2,4l0 754 -299 138 0 0 0 0c-1,0 -1,2 -1,3l0 427c0,2 1,4 1,4l33 20 0 40c0,2 0,2 2,3 0,0 16,19 45,19 18,0 25,-8 29,-13l1073 668 0 0 0 30 0 2c0,2 13,25 38,25 16,0 29,-7 36,-12l42 25 2 0 1 0 0 0 328 -161c2,0 4,-2 4,-5l-4 -422 0 0 0 0z"/>
   <g>
    <polygon class="fil4 str1" points="9106,8692 8124,8078 8124,7190 9106,7807 "/>
    <polyline class="fil4 str1" points="8124,7190 8174,7166 9142,7787 9106,7807 "/>
    <polyline class="fil4 str1" points="9106,8692 9142,8674 9142,7787 "/>
    <line class="fil4 str1" x1="7821" y1="8087" x2="8124" y2= "7948" />
    <polyline class="fil4 str1" points="9142,8533 9445,8737 9121,8898 "/>
    <polygon class="fil4 str1" points="9039,8932 7899,8210 7899,8478 9039,9207 "/>
    <polygon class="fil4 str1" points="7821,8514 9117,9321 9121,8898 7821,8087 "/>
    <polyline class="fil4 str1" points="9445,8737 9445,9160 9117,9321 "/>
    <path class="fil4 str1" d="M7856 8538l0 40c0,0 14,16 41,16 28,0 28,-16 28,-16"/>
    <path class="fil4 str1" d="M9005 9255l0 30c0,0 11,22 32,22 22,0 37,-14 37,-14"/>
    <line class="fil4 str1" x1="8346" y1="8216" x2="8250" y2= "8259" />
    <polyline class="fil4 str1" points="8779,8487 8686,8533 8686,8569 8811,8509 "/>
    <polyline class="fil4 str1" points="8686,8569 8250,8299 8250,8259 8686,8533 "/>
    <line class="fil4 str1" x1="7899" y1="8478" x2="8136" y2= "8362" />
   </g>
  </g>
  <path class="fil4 str2" d="M13570 3310l-1514 -962c-241,-147 -540,-165 -797,-45l-3673 1643c-175,77 -376,65 -541,-35l-2093 -1283c-241,-146 -540,-164 -797,-45l-2088 975c-242,112 -262,449 -34,588l6990 4388c228,140 508,156 751,42l2191 -1048c243,-114 261,-452 33,-591l-1638 -1014c-199,-121 -184,-416 27,-515l3151 -1506c242,-114 262,-452 32,-592z"/>
  <line class="fil4 str0" x1="3379" y1="5608" x2="2225" y2= "4827" />
  <g id="_910981392">
   <polygon class="fil4 str0" points="7592,2178 7244,1957 7244,1673 7592,1897 "/>
   <line class="fil4 str0" x1="7570" y1="2129" x2="7264" y2= "1933" />
   <line class="fil4 str0" x1="7570" y1="1921" x2="7264" y2= "1725" />
   <line class="fil4 str0" x1="7570" y1="1962" x2="7264" y2= "1767" />
   <line class="fil4 str0" x1="7570" y1="2004" x2="7264" y2= "1809" />
   <line class="fil4 str0" x1="7570" y1="2046" x2="7264" y2= "1850" />
   <line class="fil4 str0" x1="7570" y1="2087" x2="7264" y2= "1892" />
  </g>
  <g id="_910997072">
   <polygon class="fil4 str0" points="14848,2216 14500,1995 14500,1711 14848,1935 "/>
   <line class="fil4 str0" x1="14826" y1="2167" x2="14520" y2= "1971" />
   <line class="fil4 str0" x1="14826" y1="1959" x2="14520" y2= "1763" />
   <line class="fil4 str0" x1="14826" y1="2000" x2="14520" y2= "1805" />
   <line class="fil4 str0" x1="14826" y1="2042" x2="14520" y2= "1847" />
   <line class="fil4 str0" x1="14826" y1="2084" x2="14520" y2= "1888" />
   <line class="fil4 str0" x1="14826" y1="2125" x2="14520" y2= "1930" />
  </g>
 </g>
</svg>
