<?xml version="1.0" encoding="utf-8"?>
<!-- Generator: Adobe Illustrator 21.0.1, SVG Export Plug-In . SVG Version: 6.00 Build 0)  -->
<!DOCTYPE svg PUBLIC "-//W3C//DTD SVG 1.1//EN" "http://www.w3.org/Graphics/SVG/1.1/DTD/svg11.dtd">
<svg version="1.1" id="Слой_1" xmlns="http://www.w3.org/2000/svg" xmlns:xlink="http://www.w3.org/1999/xlink" x="0px" y="0px"
	 viewBox="0 0 99.2 99.2" style="enable-background:new 0 0 99.2 99.2;" xml:space="preserve">
<style type="text/css">
	.st0{fill:#231F20;}
</style>
<path class="st0" d="M8.1,78.1c-0.2,0-0.3-0.1-0.4-0.2c-0.3-0.2-0.3-0.7-0.1-1l16.1-19.3c0.2-0.3,0.7-0.3,1-0.1
	c0.3,0.2,0.3,0.7,0.1,1L8.6,77.8C8.5,78,8.3,78.1,8.1,78.1z"/>
<path class="st0" d="M16.3,78c-0.2,0-0.3-0.1-0.4-0.2c-0.3-0.2-0.3-0.7-0.1-1l6.9-8.2c0.2-0.3,0.7-0.3,1-0.1c0.3,0.2,0.3,0.7,0.1,1
	l-6.9,8.2C16.7,77.9,16.5,78,16.3,78z"/>
<path class="st0" d="M3.9,93.9c-0.2,0-0.3-0.1-0.4-0.1c-0.2-0.1-0.3-0.3-0.3-0.6V5.7c0-0.2,0.1-0.4,0.3-0.6C3.6,5,3.9,5,4.1,5
	l25.7,6.9c0.3,0.1,0.5,0.4,0.5,0.7v73.8c0,0.3-0.2,0.6-0.5,0.7L4.1,93.9C4,93.9,4,93.9,3.9,93.9z M4.6,6.6v85.7l24.3-6.4V13.1
	L4.6,6.6z"/>
<path class="st0" d="M7.8,55.6c-0.2,0-0.3-0.1-0.5-0.2c-0.1-0.1-0.2-0.3-0.2-0.5V44.1c0-0.2,0.1-0.4,0.2-0.5
	c0.1-0.1,0.3-0.2,0.5-0.2l2.6,0.3c0.4,0,0.6,0.3,0.6,0.7v10.2c0,0.4-0.3,0.7-0.6,0.7L7.8,55.6C7.9,55.6,7.8,55.6,7.8,55.6z
	 M8.5,44.9v9.2L9.7,54v-9L8.5,44.9z"/>
<path class="st0" d="M55.3,87.1H29.6c-0.4,0-0.7-0.3-0.7-0.7V12.6c0-0.4,0.3-0.7,0.7-0.7h25.7c0.4,0,0.7,0.3,0.7,0.7v40.6
	c0,0.4-0.3,0.7-0.7,0.7s-0.7-0.3-0.7-0.7V13.3H30.3v72.4h24.3V75.4c0-0.4,0.3-0.7,0.7-0.7S56,75,56,75.4v11
	C56,86.8,55.7,87.1,55.3,87.1z"/>
<path class="st0" d="M86.2,87.1H60.5c-0.4,0-0.7-0.3-0.7-0.7V74.2c0-0.4,0.3-0.7,0.7-0.7s0.7,0.3,0.7,0.7v11.5h24.3V76
	c0-0.4,0.3-0.7,0.7-0.7s0.7,0.3,0.7,0.7v10.4C86.9,86.8,86.6,87.1,86.2,87.1z"/>
<path class="st0" d="M90.1,91H25.7c-0.4,0-0.7-0.3-0.7-0.7v-2.9c0-0.4,0.3-0.7,0.7-0.7s0.7,0.3,0.7,0.7v2.2h63V73.5
	c0-0.4,0.3-0.7,0.7-0.7s0.7,0.3,0.7,0.7v16.8C90.8,90.7,90.5,91,90.1,91z"/>
<path class="st0" d="M90.1,41.8c-0.4,0-0.7-0.3-0.7-0.7V9.4h-63v2.1c0,0.4-0.3,0.7-0.7,0.7S25,11.9,25,11.5V8.7
	C25,8.3,25.3,8,25.7,8h64.4c0.4,0,0.7,0.3,0.7,0.7v32.4C90.8,41.5,90.5,41.8,90.1,41.8z"/>
<path class="st0" d="M60.5,46c-0.4,0-0.7-0.3-0.7-0.7V12.6c0-0.4,0.3-0.7,0.7-0.7h25.7c0.4,0,0.7,0.3,0.7,0.7v26.1
	c0,0.4-0.3,0.7-0.7,0.7s-0.7-0.3-0.7-0.7V13.3H61.2v32C61.2,45.7,60.9,46,60.5,46z"/>
<path class="st0" d="M44.2,81.9c-4.1,0-7.4-3.3-7.4-7.4c0-3.9,3.1-7.2,7-7.4c-0.2-1-0.3-1.8-0.3-2.7c0-6.5,5.3-11.8,11.8-11.8
	c0.3,0,0.7,0,1.1,0C58.6,43,67.3,36,77.2,36c12,0,21.4,9.4,21.5,21.5c0,11.8-9.6,21.4-21.4,21.4c-5.2,0-10.3-1.9-14.2-5.5
	c-2.2,1.8-4.9,2.9-7.7,2.9c-1.4,0-2.7-0.2-3.9-0.6C50.9,79.2,47.8,81.9,44.2,81.9z M44.2,68.5c-3.3,0-6,2.7-6,6c0,3.3,2.7,6,6,6
	c3.2,0,5.9-2.6,6-5.8c0-0.2,0.1-0.4,0.3-0.6c0.2-0.1,0.4-0.1,0.7-0.1c1.3,0.6,2.7,0.8,4.2,0.8c2.7,0,5.2-1,7.2-2.9
	c0.3-0.3,0.7-0.3,1,0c3.8,3.6,8.6,5.5,13.7,5.5c11,0,20-9,20-20c-0.1-11.3-8.9-20.1-20.1-20.1c-9.5,0-17.7,6.8-19.6,16.1
	c-0.1,0.4-0.5,0.6-0.8,0.5c-0.4-0.1-1-0.1-1.5-0.1c-5.7,0-10.4,4.7-10.4,10.4c0,1,0.2,2,0.5,3.2c0.1,0.2,0,0.4-0.1,0.6
	c-0.1,0.2-0.3,0.3-0.6,0.3H44.2z"/>
</svg>
