<?xml version="1.0" encoding="UTF-8"?>
<!DOCTYPE svg PUBLIC "-//W3C//DTD SVG 1.1//EN" "http://www.w3.org/Graphics/SVG/1.1/DTD/svg11.dtd">
<!-- Creator: CorelDRAW X8 -->
<svg xmlns="http://www.w3.org/2000/svg" xml:space="preserve" width="156mm" height="110mm" version="1.1" style="shape-rendering:geometricPrecision; text-rendering:geometricPrecision; image-rendering:optimizeQuality; fill-rule:evenodd; clip-rule:evenodd"
viewBox="0 0 15600 11000"
 xmlns:xlink="http://www.w3.org/1999/xlink">
 <defs>
  <style type="text/css">
   <![CDATA[
    .str2 {stroke:#231F20;stroke-width:6.41}
    .str3 {stroke:#231F20;stroke-width:6.49}
    .str1 {stroke:#050007;stroke-width:7.27}
    .str0 {stroke:#231F20;stroke-width:4.88}
    .str6 {stroke:#231F20;stroke-width:6.49;stroke-linejoin:round}
    .str5 {stroke:#050007;stroke-width:7.27;stroke-linejoin:round}
    .str4 {stroke:#053F4E;stroke-width:64.11;stroke-linecap:round}
    .fil2 {fill:none}
    .fil5 {fill:#053F4E}
    .fil1 {fill:#E0F2F9}
    .fil4 {fill:#F2F2F2}
    .fil3 {fill:#F2F2F2}
    .fil0 {fill:white}
   ]]>
  </style>
 </defs>
 <g id="Слой_x0020_1">
  <metadata id="CorelCorpID_0Corel-Layer"/>
  <polygon class="fil0" points="5399,179 7,2694 9,5379 2075,6694 2075,7353 5352,9438 6035,9106 8997,10967 14928,8189 14928,7125 12900,5869 15502,4648 15502,1635 14814,1197 14412,1385 12290,16 8278,1885 8278,1568 7592,1130 7191,1317 "/>
  <polygon class="fil1 str0" points="2723,6830 2349,6589 2349,4898 2723,5151 "/>
  <line class="fil2 str1" x1="5208" y1="8325" x2="6069" y2= "7914" />
  <polygon class="fil3" points="11707,5278 14340,4033 13229,3314 12308,2715 11041,3303 12122,3978 12114,4831 11973,4898 10129,3720 9060,4221 10070,4874 10070,5795 9925,5866 8096,4717 7506,4968 4886,3323 4886,3217 1232,4930 2236,5544 2240,4822 2363,4755 3523,5540 3512,7103 4044,7440 4046,5971 4176,5907 5347,6696 5349,8267 6078,7918 9024,9758 13613,7623 11707,6454 "/>
  <polygon class="fil3" points="5052,7310 5052,6658 5204,6761 5208,8403 4171,7746 "/>
  <polygon class="fil0 str2" points="6123,7947 6069,7914 5340,8261 5338,6693 6129,6302 "/>
  <polygon class="fil1 str2" points="6033,7930 5340,8261 5340,6821 6033,6495 "/>
  <polygon class="fil0 str3" points="5052,7306 4171,7742 4171,5904 5052,5459 "/>
  <polygon class="fil1 str3" points="4943,7250 4279,7568 4279,5991 4943,5658 "/>
  <line class="fil2 str1" x1="2345" y1="6371" x2="2723" y2= "6184" />
  <line class="fil2 str1" x1="2345" y1="6197" x2="2714" y2= "6021" />
  <line class="fil2 str1" x1="2714" y1="6021" x2="2341" y2= "5781" />
  <line class="fil2 str1" x1="2720" y1="5853" x2="2343" y2= "5612" />
  <polygon class="fil4" points="9051,4217 9775,3879 9775,1939 8863,2382 8863,4094 "/>
  <line class="fil2 str1" x1="2" y1="2695" x2="5396" y2= "179" />
  <line class="fil2 str1" x1="253" y1="2688" x2="5360" y2= "307" />
  <line class="fil2 str1" x1="5546" y1="1639" x2="6130" y2= "1366" />
  <line class="fil2 str1" x1="4869" y1="1215" x2="5454" y2= "942" />
  <line class="fil2 str1" x1="7185" y1="1318" x2="5394" y2= "177" />
  <line class="fil2 str1" x1="8172" y1="2066" x2="5361" y2= "300" />
  <line class="fil2 str1" x1="5360" y1="302" x2="5360" y2= "987" />
  <line class="fil2 str1" x1="6129" y1="1366" x2="6129" y2= "2457" />
  <line class="fil2 str1" x1="5546" y1="1639" x2="5546" y2= "3743" />
  <line class="fil2 str1" x1="4" y1="2692" x2="4" y2= "5379" />
  <line class="fil2 str1" x1="1218" y1="4927" x2="4869" y2= "3213" />
  <line class="fil2 str1" x1="9910" y1="5862" x2="8081" y2= "4713" />
  <line class="fil2 str1" x1="2070" y1="6694" x2="2" y2= "5377" />
  <line class="fil2 str1" x1="2224" y1="5699" x2="514" y2= "4646" />
  <line class="fil2 str1" x1="2224" y1="5542" x2="650" y2= "4581" />
  <line class="fil2 str1" x1="8157" y1="1939" x2="12284" y2= "16" />
  <line class="fil2 str1" x1="10263" y1="1087" x2="12292" y2= "137" />
  <line class="fil2 str1" x1="8304" y1="2004" x2="10119" y2= "1154" />
  <line class="fil2 str1" x1="9910" y1="4930" x2="8609" y2= "4080" />
  <line class="fil2 str1" x1="8609" y1="4080" x2="8745" y2= "4016" />
  <line class="fil2 str1" x1="10053" y1="4870" x2="8745" y2= "4016" />
  <line class="fil2 str1" x1="9910" y1="4930" x2="9910" y2= "5862" />
  <line class="fil2 str1" x1="9912" y1="4936" x2="10053" y2= "4870" />
  <line class="fil2 str1" x1="10053" y1="4870" x2="10053" y2= "5795" />
  <line class="fil2 str1" x1="10119" y1="1154" x2="10119" y2= "3725" />
  <line class="fil2 str1" x1="9051" y1="4217" x2="10120" y2= "3716" />
  <line class="fil2 str1" x1="11964" y1="4894" x2="10120" y2= "3725" />
  <line class="fil2 str1" x1="11025" y1="3300" x2="12292" y2= "2712" />
  <line class="fil2 str1" x1="11964" y1="4045" x2="10562" y2= "3173" />
  <line class="fil2 str1" x1="12105" y1="3975" x2="10703" y2= "3106" />
  <line class="fil2 str1" x1="11966" y1="4045" x2="11966" y2= "4894" />
  <line class="fil2 str1" x1="15268" y1="2053" x2="12292" y2= "137" />
  <line class="fil2 str1" x1="15388" y1="2129" x2="15500" y2= "2077" />
  <line class="fil2 str1" x1="14329" y1="4029" x2="12292" y2= "2712" />
  <line class="fil2 str1" x1="12894" y1="5871" x2="15498" y2= "4653" />
  <line class="fil2 str1" x1="11961" y1="5294" x2="15010" y2= "3841" />
  <line class="fil2 str1" x1="11696" y1="5274" x2="14894" y2= "3765" />
  <line class="fil2 str1" x1="13598" y1="7619" x2="11696" y2= "6443" />
  <line class="fil2 str1" x1="14671" y1="7120" x2="11696" y2= "5272" />
  <line class="fil2 str1" x1="14923" y1="7125" x2="14923" y2= "8189" />
  <line class="fil2 str1" x1="5347" y1="8401" x2="5347" y2= "9430" />
  <line class="fil2 str1" x1="5208" y1="6752" x2="5208" y2= "8535" />
  <line class="fil2 str1" x1="6035" y1="8068" x2="6035" y2= "9112" />
  <line class="fil2 str1" x1="5343" y1="8399" x2="6036" y2= "8066" />
  <line class="fil2 str1" x1="5347" y1="9430" x2="6035" y2= "9103" />
  <line class="fil2 str1" x1="8991" y1="9924" x2="6036" y2= "8066" />
  <line class="fil2 str1" x1="8991" y1="10967" x2="6031" y2= "9106" />
  <line class="fil2 str1" x1="9007" y1="9754" x2="6069" y2= "7914" />
  <line class="fil2 str1" x1="8988" y1="9924" x2="14923" y2= "7125" />
  <line class="fil2 str1" x1="9007" y1="9754" x2="14671" y2= "7120" />
  <line class="fil2 str1" x1="2070" y1="6325" x2="2070" y2= "7353" />
  <line class="fil2 str1" x1="5347" y1="8401" x2="5208" y2= "8314" />
  <line class="fil2 str1" x1="5347" y1="9430" x2="2065" y2= "7342" />
  <line class="fil2 str1" x1="2066" y1="6325" x2="2224" y2= "6249" />
  <line class="fil2 str1" x1="2224" y1="4818" x2="2224" y2= "6651" />
  <line class="fil2 str1" x1="3378" y1="5596" x2="3378" y2= "7380" />
  <line class="fil2 str1" x1="3512" y1="5533" x2="3512" y2= "7093" />
  <line class="fil2 str1" x1="3380" y1="7159" x2="3516" y2= "7094" />
  <line class="fil2 str1" x1="4046" y1="5967" x2="4046" y2= "7802" />
  <line class="fil2 str1" x1="3514" y1="5535" x2="2349" y2= "4751" />
  <line class="fil2 str1" x1="2222" y1="4820" x2="2349" y2= "4751" />
  <line class="fil2 str1" x1="3378" y1="5598" x2="3514" y2= "5533" />
  <line class="fil2 str1" x1="3378" y1="5598" x2="2224" y2= "4814" />
  <line class="fil2 str1" x1="2345" y1="4898" x2="2345" y2= "6589" />
  <line class="fil2 str1" x1="5204" y1="6758" x2="5338" y2= "6693" />
  <line class="fil2 str1" x1="4046" y1="7802" x2="4169" y2= "7742" />
  <g id="_932209344">
   <line class="fil2 str1" x1="9715" y1="2059" x2="9775" y2= "1939" />
   <g>
    <line class="fil2 str1" x1="8937" y1="2419" x2="8937" y2= "4141" />
    <line class="fil2 str1" x1="9715" y1="2059" x2="9715" y2= "3906" />
    <line class="fil2 str1" x1="8937" y1="2424" x2="9715" y2= "2059" />
    <line class="fil2 str1" x1="9775" y1="1939" x2="9775" y2= "3879" />
    <line class="fil2 str1" x1="9775" y1="1939" x2="8863" y2= "2382" />
    <line class="fil2 str1" x1="8863" y1="2382" x2="8863" y2= "4094" />
    <line class="fil2 str1" x1="8863" y1="2382" x2="8937" y2= "2419" />
    <line class="fil2 str1" x1="8937" y1="2965" x2="9715" y2= "2598" />
    <line class="fil2 str1" x1="8937" y1="3189" x2="9715" y2= "2824" />
   </g>
  </g>
  <line class="fil2 str1" x1="11964" y1="4044" x2="12105" y2= "3975" />
  <line class="fil2 str1" x1="11964" y1="4894" x2="12105" y2= "4827" />
  <line class="fil2 str1" x1="12105" y1="3975" x2="12105" y2= "4831" />
  <line class="fil2 str1" x1="15010" y1="3841" x2="14894" y2= "3765" />
  <line class="fil2 str1" x1="4046" y1="7802" x2="5208" y2= "8535" />
  <line class="fil2 str1" x1="3510" y1="7098" x2="4044" y2= "7436" />
  <line class="fil2 str1" x1="2224" y1="6651" x2="3380" y2= "7380" />
  <line class="fil2 str1" x1="11698" y1="6450" x2="11698" y2= "5274" />
  <line class="fil2 str1" x1="11961" y1="5294" x2="14923" y2= "7125" />
  <line class="fil2 str1" x1="8988" y1="9924" x2="8988" y2= "10970" />
  <line class="fil2 str1" x1="12292" y1="2712" x2="12292" y2= "137" />
  <line class="fil2 str1" x1="8172" y1="2066" x2="8609" y2= "4087" />
  <line class="fil2 str1" x1="8304" y1="2004" x2="8745" y2= "4016" />
  <line class="fil2 str1" x1="10119" y1="1154" x2="10562" y2= "3173" />
  <line class="fil2 str1" x1="10562" y1="3173" x2="10703" y2= "3106" />
  <line class="fil2 str1" x1="10263" y1="1087" x2="10703" y2= "3106" />
  <line class="fil2 str1" x1="253" y1="2688" x2="650" y2= "4581" />
  <line class="fil2 str1" x1="101" y1="2759" x2="516" y2= "4648" />
  <line class="fil2 str1" x1="101" y1="2759" x2="2" y2= "2695" />
  <line class="fil2 str1" x1="514" y1="4646" x2="650" y2= "4581" />
  <line class="fil2 str1" x1="6130" y1="1366" x2="5454" y2= "942" />
  <line class="fil2 str1" x1="4869" y1="1215" x2="5546" y2= "1639" />
  <line class="fil2 str1" x1="4869" y1="2726" x2="5546" y2= "3150" />
  <line class="fil2 str1" x1="4869" y1="2632" x2="5546" y2= "3056" />
  <line class="fil2 str1" x1="4869" y1="1215" x2="4869" y2= "3320" />
  <line class="fil2 str1" x1="4869" y1="3320" x2="7491" y2= "4965" />
  <line class="fil2 str1" x1="5208" y1="2938" x2="5208" y2= "3531" />
  <line class="fil2 str1" x1="5208" y1="1427" x2="5208" y2= "2844" />
  <line class="fil2 str1" x1="5256" y1="2111" x2="5256" y2= "2268" />
  <line class="fil2 str1" x1="5157" y1="2033" x2="5157" y2= "2189" />
  <line class="fil2 str1" x1="5256" y1="3217" x2="5256" y2= "3372" />
  <line class="fil2 str1" x1="5157" y1="3137" x2="5157" y2= "3294" />
  <line class="fil2 str1" x1="6223" y1="3150" x2="6814" y2= "2880" />
  <line class="fil2 str1" x1="7491" y1="4965" x2="8081" y2= "4713" />
  <line class="fil2 str1" x1="6223" y1="3146" x2="6225" y2= "4168" />
  <line class="fil2 str1" x1="8081" y1="3671" x2="6129" y2= "2457" />
  <line class="fil2 str1" x1="7497" y1="3942" x2="5546" y2= "2728" />
  <line class="fil2 str1" x1="6818" y1="3521" x2="7402" y2= "3249" />
  <line class="fil2 str1" x1="8081" y1="3671" x2="8081" y2= "4713" />
  <line class="fil2 str1" x1="6820" y1="3521" x2="6822" y2= "4543" />
  <line class="fil2 str1" x1="6822" y1="4302" x2="6225" y2= "3930" />
  <line class="fil2 str1" x1="6717" y1="3606" x2="6326" y2= "3360" />
  <line class="fil2 str1" x1="6223" y1="3334" x2="5546" y2= "2911" />
  <line class="fil2 str1" x1="5550" y1="2726" x2="6129" y2= "2457" />
  <line class="fil2 str1" x1="5893" y1="2945" x2="5893" y2= "3964" />
  <line class="fil2 str1" x1="5942" y1="3528" x2="5942" y2= "3683" />
  <line class="fil2 str1" x1="5843" y1="3448" x2="5843" y2= "3606" />
  <ellipse class="fil2 str1" transform="matrix(1.33268 -0.463981 0.463981 1.33268 5716.26 2921.65)" rx="13" ry="15"/>
  <ellipse class="fil2 str1" transform="matrix(1.2751 -0.604531 0.604531 1.2751 6042.15 3133.32)" rx="13" ry="15"/>
  <ellipse class="fil2 str1" cx="6545" cy="3182" rx="83" ry="65"/>
  <ellipse class="fil2 str1" cx="6804" cy="3057" rx="83" ry="65"/>
  <ellipse class="fil2 str1" cx="6804" cy="3331" rx="83" ry="65"/>
  <ellipse class="fil2 str1" cx="7062" cy="3206" rx="83" ry="65"/>
  <line class="fil2 str1" x1="7491" y1="3942" x2="8081" y2= "3671" />
  <line class="fil2 str1" x1="7158" y1="3734" x2="7158" y2= "4758" />
  <line class="fil2 str1" x1="7209" y1="4138" x2="7209" y2= "4295" />
  <line class="fil2 str1" x1="7109" y1="4060" x2="7109" y2= "4215" />
  <line class="fil2 str1" x1="7497" y1="3942" x2="7497" y2= "4965" />
  <line class="fil2 str1" x1="15384" y1="2129" x2="15010" y2= "3841" />
  <line class="fil2 str1" x1="15268" y1="2053" x2="14894" y2= "3765" />
  <line class="fil2 str1" x1="2220" y1="6651" x2="2345" y2= "6589" />
  <line class="fil2 str1" x1="3380" y1="7159" x2="4046" y2= "7581" />
  <line class="fil2 str1" x1="2070" y1="6325" x2="2224" y2= "6421" />
  <line class="fil2 str1" x1="9910" y1="5862" x2="10053" y2= "5795" />
  <line class="fil2 str1" x1="3512" y1="5533" x2="3512" y2= "7093" />
  <line class="fil2 str1" x1="5204" y1="6758" x2="5338" y2= "6693" />
  <line class="fil2 str1" x1="4169" y1="7744" x2="5208" y2= "8399" />
  <g id="_932172704">
   <path class="fil0" d="M12122 3108l0 0c-4,-27 -15,-54 -33,-81 -33,-49 -87,-89 -150,-116 -49,-20 -100,-29 -143,-27l-36 -31 40 -18 -2 -4 3 0 53 -284c0,-5 2,-9 2,-14l0 0 0 0c0,-35 -18,-67 -47,-85l-69 -40 -373 181c-13,7 -22,23 -20,40l24 267 5 0 -4 4 71 43c11,6 22,11 33,15 5,5 43,51 67,121 25,74 16,109 16,109l-2 3 24 18 -123 62 5 3 0 48 326 200 266 -126 1 -2 0 -42 6 -1 -67 -42 11 -4c2,0 61,-14 92,-50 34,-40 44,-93 24,-147z"/>
   <g>
    <ellipse class="fil2 str1" transform="matrix(0.530728 -1.30756 1.30756 0.530728 11869.7 3090.56)" rx="72" ry="131"/>
    <path class="fil2 str1" d="M11702 3014c0,-4 2,-7 3,-11 26,-61 125,-81 221,-42 96,40 154,122 129,185 -4,11 -11,20 -18,27"/>
    <ellipse class="fil2 str1" transform="matrix(0.530728 -1.30756 1.30756 0.530728 11874.7 3071.69)" rx="121" ry="181"/>
    <path class="fil2 str1" d="M11477 2952c0,0 42,46 69,123 27,78 16,111 16,111l82 61"/>
    <path class="fil2 str1" d="M11644 3244c-18,43 27,103 101,132 74,29 147,18 165,-25 2,-6 4,-11 4,-19l92 -34c0,0 60,-13 90,-49 31,-36 40,-87 22,-139"/>
    <polyline class="fil2 str1" points="11590,3208 11467,3269 11798,3466 12053,3349 11986,3307 "/>
    <polyline class="fil2 str1" points="12053,3349 12053,3390 11789,3515 11467,3316 11467,3267 "/>
    <path class="fil2 str1" d="M11798 2831l52 -284c7,-38 -11,-76 -43,-96l-67 -38 -371 179c-13,8 -20,20 -18,35l23 268"/>
    <line class="fil2 str1" x1="11751" y1="2853" x2="11794" y2= "2889" />
    <line class="fil2 str1" x1="11711" y1="2871" x2="11738" y2= "2896" />
    <line class="fil2 str1" x1="11602" y1="2922" x2="11648" y2= "2956" />
    <line class="fil2 str1" x1="11570" y1="2938" x2="11633" y2= "2990" />
    <path class="fil2 str1" d="M12080 3211c-43,74 -170,96 -291,45 -113,-45 -185,-135 -181,-215l-85 -85"/>
    <path class="fil2 str1" d="M11354 2607l84 50c38,24 85,28 126,8l290 -134"/>
    <path class="fil2 str1" d="M11374 2896l71 44c32,20 72,21 107,5l246 -114"/>
   </g>
  </g>
  <g id="_932171840">
   <line class="fil2 str4" x1="7227" y1="2124" x2="6425" y2= "2506" />
   <polyline class="fil2 str4" points="7037,2057 7258,2107 7207,2325 "/>
  </g>
  <g id="_932167328">
   <polyline class="fil2 str4" points="14208,2051 14427,2102 14376,2319 "/>
   <line class="fil2 str4" x1="14382" y1="2124" x2="13419" y2= "2583" />
  </g>
  <g id="_932163136">
   <path class="fil0" d="M12496 6953c0,0 -2,0 -2,-2l0 0 -110 -65 87 -423c5,-29 -7,-56 -33,-71l-1170 -684c-22,-12 -46,-16 -67,-11 -4,0 -8,2 -11,2 -15,4 -33,6 -51,17 -13,7 -25,16 -38,27 -40,36 -67,87 -80,143l-39 195 -105 -58c-22,-9 -46,-7 -67,4l-411 228c-80,43 -128,125 -128,215l0 476c0,22 12,42 32,52l150 89 2 2 2 0 0 0 0 0c9,5 18,7 27,7 9,0 20,-2 29,-7l58 -33 1154 673 0 49c0,20 9,38 27,49l158 92 0 0 0 0 0 0 0 0c9,6 18,8 29,8 9,0 20,-2 29,-8l532 -305c22,-13 36,-37 36,-62l0 -532c-2,-27 -16,-52 -40,-67z"/>
   <g>
    <path class="fil2 str5" d="M12502 7606l-532 306c-37,20 -80,-5 -80,-47l0 -476c0,-88 49,-170 127,-211l412 -225c49,-25 107,9 107,64l0 532c-2,23 -15,45 -34,57z"/>
    <path class="fil2 str5" d="M11915 7912l-157 -94c-15,-9 -24,-25 -24,-45l0 -476c0,-89 49,-170 127,-212l413 -224c23,-13 50,-11 72,2l152 90"/>
    <path class="fil2 str5" d="M10574 7045l-59 35c-36,20 -80,-6 -80,-47l0 -476c0,-89 49,-170 127,-212l425 -231"/>
    <path class="fil2 str5" d="M10987 6085l-107 -58c-20,-9 -41,-9 -63,3l-413 225c-77,41 -126,123 -126,211l0 476c0,22 12,40 29,47l154 91"/>
    <polyline class="fil2 str5" points="11734,7386 10479,6651 10926,6407 11975,7024 "/>
    <polyline class="fil2 str5" points="11734,7583 10479,6852 10479,6651 "/>
    <polyline class="fil2 str5" points="10537,6886 10537,7024 11734,7722 "/>
    <path class="fil2 str5" d="M10926 6407l108 -520c11,-54 38,-105 78,-141 11,-11 23,-20 36,-27 24,-13 45,-14 60,-18 22,-5 45,-2 65,11l1171 684c23,13 34,40 29,67l-89 425"/>
    <path class="fil2 str5" d="M12181 6912l65 -317c11,-54 38,-105 78,-141 11,-11 24,-20 36,-27 24,-13 46,-15 60,-18 11,-2 22,-4 33,-2"/>
   </g>
  </g>
  <line class="fil2 str1" x1="7587" y1="1130" x2="8273" y2= "1568" />
  <line class="fil2 str1" x1="8155" y1="1492" x2="8155" y2= "1492" />
  <line class="fil2 str1" x1="8159" y1="1939" x2="7873" y2= "1756" />
  <polygon class="fil4 str1" points="7754,1680 8043,1545 8043,1545 7587,1257 7299,1391 "/>
  <line class="fil2 str1" x1="7587" y1="1130" x2="7185" y2= "1318" />
  <line class="fil2 str1" x1="8273" y1="1568" x2="7873" y2= "1756" />
  <g id="_932169888">
   <line class="fil2 str4" x1="7701" y1="752" x2="7705" y2= "1456" />
   <polyline class="fil2 str4" points="7542,877 7701,718 7860,875 "/>
  </g>
  <line class="fil2 str1" x1="8273" y1="1568" x2="8273" y2= "1885" />
  <line class="fil2 str1" x1="7587" y1="1257" x2="7587" y2= "1574" />
  <line class="fil2 str1" x1="14409" y1="1385" x2="12284" y2= "16" />
  <line class="fil2 str1" x1="15496" y1="1635" x2="15496" y2= "4648" />
  <line class="fil2 str1" x1="14810" y1="1199" x2="15496" y2= "1635" />
  <line class="fil2 str1" x1="15377" y1="1559" x2="15377" y2= "1559" />
  <polygon class="fil4 str1" points="14975,1747 15266,1612 15266,1612 14809,1326 14523,1458 "/>
  <line class="fil2 str1" x1="14810" y1="1199" x2="14409" y2= "1385" />
  <line class="fil2 str1" x1="15496" y1="1635" x2="15095" y2= "1823" />
  <g id="_932170720">
   <line class="fil2 str4" x1="14923" y1="819" x2="14928" y2= "1523" />
   <polyline class="fil2 str4" points="14765,944 14924,785 15082,942 "/>
  </g>
  <line class="fil2 str1" x1="14809" y1="1326" x2="14809" y2= "1641" />
  <line class="fil2 str1" x1="15095" y1="1823" x2="15496" y2= "2078" />
  <line class="fil2 str1" x1="2723" y1="5151" x2="2723" y2= "6966" />
  <line class="fil2 str1" x1="2808" y1="5209" x2="2808" y2= "7018" />
  <line class="fil2 str1" x1="2810" y1="7018" x2="2935" y2= "6959" />
  <line class="fil2 str1" x1="2935" y1="5294" x2="2935" y2= "6959" />
  <line class="fil2 str1" x1="2935" y1="6959" x2="3378" y2= "7239" />
  <g id="_932184960">
   <polyline class="fil2 str4" points="11224,3450 11445,3501 11394,3718 "/>
   <line class="fil2 str4" x1="11400" y1="3522" x2="10435" y2= "3984" />
  </g>
  <g id="_932187296">
   <polyline class="fil2 str4" points="7743,5144 7962,5194 7911,5413 "/>
   <line class="fil2 str4" x1="7916" y1="5216" x2="6954" y2= "5678" />
  </g>
  <g id="_932185696">
   <polyline class="fil2 str4" points="4281,6850 4500,6901 4449,7118 "/>
   <line class="fil2 str4" x1="4455" y1="6922" x2="3492" y2= "7382" />
  </g>
  <polygon class="fil1 str0" points="3378,7239 2931,6959 2935,5298 3378,5596 "/>
  <g id="_932186432">
   <circle class="fil5" cx="2801" cy="6039" r="335"/>
   <path class="fil0" d="M2801 5853l0 0c-43,0 -74,22 -92,47 -29,42 -20,63 -22,114l-22 0 0 208 134 0 134 0 0 -208 -22 0c-1,-51 8,-72 -21,-114 -15,-23 -46,-45 -89,-47l0 0zm0 208c14,0 27,13 27,27 0,9 -5,18 -13,24l0 34c0,7 -5,13 -12,13 -7,0 -13,-6 -13,-13l0 -34c-7,-6 -13,-13 -13,-24 -3,-14 9,-27 24,-27zm-72 -47c-2,-60 0,-119 70,-119 0,0 0,0 2,0 0,0 0,0 2,0 70,0 72,61 70,119l-72 0 -72 0z"/>
  </g>
  <polygon class="fil0 str6" points="5338,6693 5204,6758 4046,5967 4171,5904 "/>
  <line class="fil2 str1" x1="8991" y1="10967" x2="14923" y2= "8189" />
  <g id="_932179360">
   <path class="fil0" d="M9449 8726c0,-1 0,-3 -2,-3l-300 -203 0 -742 0 0 0 0c0,-1 0,-3 -2,-3l-968 -621c-2,-2 -4,-2 -5,0l-51 24 0 0 0 0c-2,0 -2,1 -2,3l0 755 -299 137 0 0 0 0c-1,0 -1,2 -1,4l0 427c0,2 1,4 1,4l33 19 0 40c0,2 0,2 2,4 0,0 16,18 45,18 18,0 25,-7 29,-13l1073 668 0 0 0 31 0 2c0,1 13,25 38,25 16,0 29,-7 36,-13l42 26 2 0 1 0 0 0 328 -161c2,0 4,-2 4,-6l-4 -422 0 0 0 0z"/>
   <g>
    <polygon class="fil2 str5" points="9105,8681 8123,8068 8123,7179 9105,7796 "/>
    <polyline class="fil2 str5" points="8123,7179 8173,7156 9141,7777 9105,7796 "/>
    <polyline class="fil2 str5" points="9105,8681 9141,8663 9141,7777 "/>
    <line class="fil2 str5" x1="7820" y1="8077" x2="8123" y2= "7938" />
    <polyline class="fil2 str5" points="9141,8522 9444,8726 9120,8888 "/>
    <polygon class="fil2 str5" points="9038,8922 7898,8200 7898,8468 9038,9197 "/>
    <polygon class="fil2 str5" points="7820,8504 9116,9311 9120,8888 7820,8077 "/>
    <polyline class="fil2 str5" points="9444,8726 9444,9150 9116,9311 "/>
    <path class="fil2 str5" d="M7855 8527l0 40c0,0 14,17 41,17 28,0 28,-17 28,-17"/>
    <path class="fil2 str5" d="M9004 9244l0 31c0,0 11,21 32,21 22,0 37,-14 37,-14"/>
    <line class="fil2 str5" x1="8345" y1="8205" x2="8249" y2= "8249" />
    <polyline class="fil2 str5" points="8778,8477 8685,8522 8685,8558 8810,8498 "/>
    <polyline class="fil2 str5" points="8685,8558 8249,8289 8249,8249 8685,8522 "/>
    <line class="fil2 str5" x1="7898" y1="8468" x2="8135" y2= "8352" />
   </g>
  </g>
  <g id="_932177216">
   <polygon class="fil2 str1" points="7591,2167 7243,1946 7243,1662 7591,1887 "/>
   <line class="fil2 str1" x1="7569" y1="2118" x2="7263" y2= "1923" />
   <line class="fil2 str1" x1="7569" y1="1910" x2="7263" y2= "1715" />
   <line class="fil2 str1" x1="7569" y1="1952" x2="7263" y2= "1756" />
   <line class="fil2 str1" x1="7569" y1="1993" x2="7263" y2= "1798" />
   <line class="fil2 str1" x1="7569" y1="2035" x2="7263" y2= "1840" />
   <line class="fil2 str1" x1="7569" y1="2077" x2="7263" y2= "1881" />
  </g>
  <g id="_932176608">
   <polygon class="fil2 str1" points="14847,2205 14499,1984 14499,1700 14847,1925 "/>
   <line class="fil2 str1" x1="14825" y1="2156" x2="14519" y2= "1961" />
   <line class="fil2 str1" x1="14825" y1="1948" x2="14519" y2= "1753" />
   <line class="fil2 str1" x1="14825" y1="1990" x2="14519" y2= "1794" />
   <line class="fil2 str1" x1="14825" y1="2031" x2="14519" y2= "1836" />
   <line class="fil2 str1" x1="14825" y1="2073" x2="14519" y2= "1878" />
   <line class="fil2 str1" x1="14825" y1="2115" x2="14519" y2= "1919" />
  </g>
 </g>
</svg>
