<?xml version="1.0" encoding="UTF-8"?>
<!DOCTYPE svg PUBLIC "-//W3C//DTD SVG 1.1//EN" "http://www.w3.org/Graphics/SVG/1.1/DTD/svg11.dtd">
<!-- Creator: CorelDRAW 2017 -->
<svg xmlns="http://www.w3.org/2000/svg" xml:space="preserve" width="35.263mm" height="16.764mm" version="1.1" style="shape-rendering:geometricPrecision; text-rendering:geometricPrecision; image-rendering:optimizeQuality; fill-rule:evenodd; clip-rule:evenodd"
viewBox="0 0 3526.3 1676.4"
 xmlns:xlink="http://www.w3.org/1999/xlink">
 <defs>
  <style type="text/css">
   <![CDATA[
    .fil0 {fill:black}
   ]]>
  </style>
 </defs>
 <g id="Слой_x0020_1">
  <metadata id="CorelCorpID_0Corel-Layer"/>
  <path class="fil0" d="M930.86 1252.53l1699.73 0c29.36,-276.81 356,-315.81 501.8,-180.62 14.16,13.13 44.79,55.29 57.6,80.87 62.72,125.21 -43.05,99.75 227.11,99.75l-0.02 -273.5 -113.33 -2.86c-13.27,-53.13 -29.26,-93.26 -44.29,-146.5 -44.76,-17.87 -639.38,-95.46 -753.16,-117.96 -47.05,-9.31 -118.74,-92.18 -154.45,-128.04 -89.4,-89.79 -201.01,-208.79 -290.98,-291.02 -47.69,-43.59 -27.46,-34.52 -112.28,-34.45l-1161.65 -0.23c-56.02,-0.47 -35.82,-1 -97.19,49.66l-514.2 433.25c-10.76,15.09 -6.71,40.79 -6.59,64.46l0.01 444.7 175.6 2.69c16.2,-10.63 5.37,6.76 13.08,-23.09 1.92,-7.42 3.15,-19.06 5.23,-28.08 4.06,-17.66 8.82,-33.77 16.33,-50.32 16.24,-35.81 31.59,-60.8 54.53,-84.12 104.88,-106.58 351.54,-123.02 454.55,86.65 19.59,39.89 28.48,87.56 42.57,98.76zm2400.5 -313.82l85.75 3.23 -0.03 -86.58c-27.08,-3.97 -97.2,-19.89 -118.04,-22.22 8.78,39.33 18.93,71.56 32.32,105.57zm-3174.85 340.95c-14.89,-23.26 -9.98,-3.13 -14.54,-24.91l1.69 -512.41c6.16,-27.01 24.2,-33.39 56.36,-59.95l463.34 -390.07c57.28,-48.86 61.2,-62.48 106.76,-62.16l1195.06 0.24c100.29,-0.08 65.76,-2.34 121.25,47.74 60.19,54.32 112.96,113.09 171.61,171.99l217.75 214.65c20.53,21.15 25.64,17.92 59.7,23.03l735.12 112.21c166.48,25.27 175.27,8.7 174.32,82.84l0.01 339.38c0.61,45.52 4.57,31.5 -19.55,58.1 -62.32,0 -126.55,1.62 -188.56,0.5 -10.78,-0.19 -14.4,0.42 -22.8,-3.13l-9.39 -6.35c-10.92,-10.11 -9.1,-8.12 -15.19,-34.88 -26.41,-116.23 -110.28,-211.68 -256.33,-211.68 -154.17,0 -243.52,75.06 -271.68,213.08 -9.04,44.3 -4.41,15.44 -21.46,41.78 -180.55,8.58 -381.37,0.68 -564.18,0.68l-1128.79 0.32c-13.23,0.08 -23.22,1.12 -33.45,-3.56l-16.17 -16.1c-13.72,-25.72 -8.47,-65.92 -65.4,-145.19 -106.31,-148.02 -404.51,-144.3 -447.49,123.54 -5.05,31.49 -11.56,40.84 -44.93,41.46 -57.59,1.08 -125.88,1.57 -183.06,-1.15z"/>
  <path class="fil0" d="M1366.09 307.82l-479.48 5c-24.65,29.26 -44.04,63.17 -64.61,93.58 -20.34,30.06 -38.83,57.61 -60.12,89.56 -39.41,59.13 -90.42,125.96 -125.72,184.49l729.37 2.93 0.56 -375.56zm950.29 372.86c-16.08,-26.57 -91.7,-96.4 -131.18,-140.88 -58.77,-66.22 -153.23,-169.44 -218.57,-224.29l-567.39 -6.25 -2.31 373.71 919.45 -2.29zm69.34 30.48c-77.53,1.66 -899.39,-1.03 -1023.43,-0.23 -124.74,0 -254.78,-5.54 -381.65,-5.59 -128.07,0 -274.94,3.88 -398.81,1.53 26.17,-59.85 210.34,-319.02 276.44,-420.97l542.74 -2.72c196.35,0 392.69,2.17 588.98,6.91 19.31,20.86 378.66,382.37 395.73,421.07z"/>
  <path class="fil0" d="M672.6 1088.67c-121.49,-22.28 -219.28,64.48 -239.11,166.79 -24.38,125.83 62.97,226.02 163.04,247.22 268.69,56.91 365.94,-360.85 76.07,-414.01zm-34.88 445.82c-212.48,0 -312.1,-259.69 -166.33,-407.35 57.96,-58.7 159.06,-95.6 261.8,-51.09 235.63,102.06 166.02,458.44 -95.47,458.44z"/>
  <path class="fil0" d="M3133.94 1327.54c19.32,-124.95 -70.52,-223.92 -176.72,-240.33 -124.65,-19.27 -221.74,72.11 -238.4,174.63 -44.77,275.56 372.29,342.82 415.12,65.7zm30.2 -16.66c-6.63,125.68 -115.45,231.45 -253.38,223.4 -126.28,-7.36 -231.3,-118.85 -221.87,-256.94 8.57,-125.4 118.54,-229.97 255.01,-219.86 124.64,9.23 227.4,117.47 220.24,253.4z"/>
  <path class="fil0" d="M2957.46 1222.75c-94.16,-45.51 -163.02,97.02 -66.18,147.05 68,35.13 140.68,-39.65 108.47,-109.3 -11.1,-24.01 -21.05,-27.48 -42.29,-37.75zm-136.51 104.79c-20.4,-64.28 21.54,-120.64 70.55,-136.33 70.33,-22.5 124.98,22.54 139.4,71.72 41.34,140.97 -165.77,203.87 -209.95,64.61z"/>
  <path class="fil0" d="M669.22 1221.13c-100.09,-45.27 -157.8,115.12 -59.58,151.36 94.76,34.97 164.11,-104.08 59.58,-151.36zm6.57 -28.45c132,45.57 69.75,254.76 -71.74,207.55 -128.81,-42.98 -74.13,-257.9 71.74,-207.55z"/>
 </g>
</svg>
