<?xml version="1.0" encoding="UTF-8"?>
<!DOCTYPE svg PUBLIC "-//W3C//DTD SVG 1.1//EN" "http://www.w3.org/Graphics/SVG/1.1/DTD/svg11.dtd">
<!-- Creator: CorelDRAW 2017 -->
<svg xmlns="http://www.w3.org/2000/svg" xml:space="preserve" width="21mm" height="21mm" version="1.1" style="shape-rendering:geometricPrecision; text-rendering:geometricPrecision; image-rendering:optimizeQuality; fill-rule:evenodd; clip-rule:evenodd"
viewBox="0 0 2100 2100"
 xmlns:xlink="http://www.w3.org/1999/xlink">
 <defs>
  <style type="text/css">
   <![CDATA[
    .fil0 {fill:black}
   ]]>
  </style>
 </defs>
 <g id="Слой_x0020_1">
  <metadata id="CorelCorpID_0Corel-Layer"/>
  <path class="fil0" d="M170.42 1720.68c23.9,-3.24 106.34,-34.06 121.66,-46.29 -20.46,16.43 -34.45,47.8 -52.81,71.64 -20.62,26.77 -38.79,46.28 -59.14,78.13 -37.83,59.2 -67.7,116.84 -87.04,190.81 99.78,-14.33 192.32,-92.84 261.17,-136.22l77 -58.82c-19.87,39.56 -35.34,65.43 -39.96,116.57 55.5,-8.26 181.7,-126.07 207.92,-171.55 -27.18,16.07 -40.88,30.25 -64.94,48.32 -24.29,18.25 -47.91,43.92 -70.58,34.01l-2.2 -66.35c-19.56,10.7 -50.33,19.52 -77.69,29.04 -49.63,17.29 -54.07,16.96 -95.97,-6.11 -7.49,-76.34 27.84,-100.86 41.5,-161.91l-68.68 5.57c-4.35,-21.24 -7.99,-13.46 10.88,-45.16 9.22,-15.48 18.54,-28.57 28.52,-40.2 25.45,-29.67 25.2,-22.53 60.93,-70.75 -16.29,17.64 -31.36,19.07 -52.48,45 -16.21,19.91 -30.95,33.18 -51.83,56.19 -20.47,22.57 -79.86,89.37 -86.26,128.08z"/>
  <path class="fil0" d="M430.8 1555.13c6.23,13.95 10.41,18.01 16.78,30.12 -12.06,23.27 -32.22,41.97 -45.8,73.23 -4.99,11.5 -12.45,29.25 -6.55,43.26 5.37,12.75 13.8,14.99 29,12.52 12.29,-1.99 7.01,-1.21 13.12,-4.82 -33.95,-20.25 -5.5,-90.05 36.44,-99.12 33.56,-7.27 65.73,8.96 76.93,38.46 9.92,26.14 -1.13,26.62 -1.14,26.64l47.02 24.02c20.01,7.11 38.21,12.38 58.29,7.42 49.09,-12.13 44.13,-43.17 40.25,-93.13 30.86,-25.08 82.56,-43.62 105.5,-70.8 -62.41,9.76 -84.98,5.15 -122.62,43.96 -45.95,47.36 -26.35,98.41 -41.52,117.39 -32.55,-13.37 2.41,-15.66 -20.54,-75.28 -35.6,-92.5 -116.54,-86.11 -185.16,-73.87z"/>
  <path class="fil0" d="M437.35 1709.44c32.14,-5.16 63.87,-34.15 85.23,-48.21l27 14.19c0.01,-0.02 11.06,-0.5 1.14,-26.64 -11.2,-29.5 -43.37,-45.73 -76.93,-38.46 -41.94,9.07 -70.39,78.87 -36.44,99.12z"/>
  <path class="fil0" d="M1314.41 557.54c119.52,-19.76 220.37,69.25 236.47,169.68 45.19,281.86 -369.97,331.58 -410.29,69.77 -19.39,-125.84 68.07,-221.97 173.82,-239.45zm-866.83 1027.71c-20.79,30.55 -79.76,103.25 -47.24,124.65 47.98,31.57 106.16,-69.88 149.24,-34.48 27.65,14.13 50.41,29.65 86.92,33.35 4.65,0 69.42,20.49 59.52,-95.48 96.82,-56.67 189.11,-125.14 286.8,-182.81 60.81,-35.9 124.08,-88.93 180.97,-116.9 61.22,322.03 -368.63,507.05 -383.6,761.73 177.75,-73.34 458.99,-394.32 696.61,-732.14 45.54,-81.48 83.94,-164.42 120.34,-255.67 16.83,-42.2 28,-101.2 58.68,-129.01 163.17,-147.93 304.83,-306.46 380.48,-559.92 21.71,-72.74 57.22,-258.15 27.38,-331.35 -26.45,-64.88 -261.13,-20.56 -317.78,-4.98 -79.74,21.92 -194.52,70.79 -261.27,109.52 -23.05,13.37 -35.15,25.78 -54.96,36.61 -23.35,12.77 -37.57,22.72 -58,38.52 -63.56,49.16 -144.05,118.08 -197.26,178.83 -53.78,61.42 -50.43,46.29 -116.29,71.34 -254.1,96.67 -444.68,213.37 -638.13,393.3 -21.51,20 -34.26,28.68 -51.19,45.55 -7.35,7.31 -461.12,424.3 -323.39,394.92 64.75,-13.82 409.6,-288.59 507.5,-347.4 71.23,-42.81 143.7,-58.18 240.85,-39.41 -5.32,23.98 -255.6,388.39 -295.72,468.8 -46.62,-0.43 -84.32,-5.84 -94.51,36.79 -12.47,52.19 20.42,93.19 44.05,135.64z"/>
 </g>
</svg>
