<?xml version="1.0" encoding="UTF-8"?>
<!DOCTYPE svg PUBLIC "-//W3C//DTD SVG 1.1//EN" "http://www.w3.org/Graphics/SVG/1.1/DTD/svg11.dtd">
<!-- Creator: CorelDRAW 2017 -->
<svg xmlns="http://www.w3.org/2000/svg" xml:space="preserve" width="35.263mm" height="16.764mm" version="1.1" style="shape-rendering:geometricPrecision; text-rendering:geometricPrecision; image-rendering:optimizeQuality; fill-rule:evenodd; clip-rule:evenodd"
viewBox="0 0 3526.3 1676.4"
 xmlns:xlink="http://www.w3.org/1999/xlink">
 <defs>
  <style type="text/css">
   <![CDATA[
    .fil0 {fill:black}
   ]]>
  </style>
 </defs>
 <g id="Слой_x0020_1">
  <metadata id="CorelCorpID_0Corel-Layer"/>
  <path class="fil0" d="M1723.52 836.24l-17.98 48.72c-40.25,2.02 -116.4,-15.79 -157.4,-24.54 -31.31,-6.69 -117.14,-34.82 -135.15,-36.32 44.38,-2.19 101.86,5.26 149.92,5.17 51.49,-0.1 100.11,-5.35 150.05,-7.51 1.26,-7.03 1.88,-18.85 3.06,-23 5.4,-19.05 -3.29,-2.27 10.17,-18.54 -109.11,8.32 -254.14,17.92 -358.88,-3.63l-0.21 -94.34 -83.64 0.44 0.12 281.8c-79.25,31.02 -110.36,37.62 -207.57,35.57 -62,-1.31 -160.76,-11.41 -208.37,-39.03l-0.38 -231.23 -749.9 0.56 0.52 404.24 1248.56 0.9 0.72 -283.69c139.55,35.52 164.28,55.16 328.24,73.79l-29.99 264.09c-13.33,63.68 -32.98,131.9 -76.42,179.52 -4.52,4.96 -14.24,15.9 -6.31,23.09 11.51,10.44 24.47,-13.91 52.15,-41.87 7.24,-7.31 10.61,-13.56 17.32,-21.99 67.79,-85.18 127.71,-161.6 139.02,-283.64 16.28,64.5 5.39,183.45 -15.54,249.71 -6.51,20.61 -26.17,48.12 -15.99,67.24 19.75,-2.53 10.21,2.24 28.74,-39.69 7.32,-16.56 13.99,-30.66 22.23,-46.73 85.55,-166.8 91.45,-116.65 102.94,-319.47 56.71,43.79 32.41,114.01 36.45,186.33 27.63,-2.71 17,-8.08 44.69,-51.76 31.76,-50.14 77.91,-131.06 128.6,-155.38 26.36,177.95 -78.34,201.92 -96.24,266.6 -9.63,34.8 -24.99,175.23 -30.06,219.94 -8.42,74.22 5.41,53.37 25.81,100.66 15.26,35.37 -23.42,70.72 0.21,97.92 18.52,21.31 80.21,15.89 104.58,2.88 5.82,-60.28 -65.19,-81.83 -64.65,-182.18 0.36,-67.43 27.1,-148.16 53.53,-199.1 32.91,-63.43 67.68,-90.67 103.02,-142.78 23.4,-34.49 79.95,-127.83 120.49,-129.5 41.3,42.89 12.08,146.25 -10.55,190.33 -41.84,81.52 38.9,149.08 84.17,251.7 17.56,39.8 23.1,45.91 52.92,70.12 43.02,34.92 -12.21,46.33 6.96,86.18 8.74,18.16 49.18,44.64 83.66,40.41 22.28,-49.85 -14.55,-119.35 -39.62,-157.86 -28.29,-43.42 -64.82,-77.53 -80.4,-140.86 -15.44,-62.8 -8.91,-128.2 20.75,-178.71l79.32 -141.18c24.03,-1.51 79.05,23.55 109.81,31.15 87.17,21.51 173.63,24.37 263.48,23.74 174.96,-1.21 133.62,-14.54 115.17,178.15 -5.47,57.13 -0.91,116.63 2.86,174.1 16.74,255.2 24.93,134.89 58.52,211.72 12.64,28.93 10.96,42.88 30.04,62.52 32.47,8.49 76.36,0.41 94.89,-16.81 6.79,-57.16 -67.71,-59.32 -93.46,-91.85 -79.04,-99.81 13.29,-372.07 49.56,-478.92 29.43,-86.68 5.34,-78.29 91.09,-105.26 98.32,-30.93 164.58,-24.6 162.83,93.91 -0.55,36.9 -3.5,54.21 -34.66,63.36 -57.42,16.86 -81.31,59.21 -51.57,119.58 44.35,2.16 72.65,-38.75 113.71,-81.8 44.79,-46.96 54.49,-47.93 34.99,-134.15 -10.35,-45.76 -20.49,-114.26 -43.59,-148.03 -34.1,-49.85 -90.47,-26.42 -155.14,-23.01 4.61,-51.14 28.5,-74.09 3.28,-130.11 -17.35,-38.52 -27.34,-78.42 -34.8,-123.06 -7.34,-43.97 -46.49,-245.97 -35.97,-272.4 1.29,-0.52 3.33,-2.36 4.05,-1.04l176.75 40.32c29.93,10.27 46.54,32.18 84.71,24.31 32.39,-6.67 50.35,-32.81 42.02,-71.24 -5.88,-27.1 -67.57,-84.29 -98.86,-128.22 -32.64,-45.84 -62.95,-91.95 -100.39,-125.85 -82.74,-74.92 -211.57,-112.38 -342,-51.26 -76.59,35.88 -78.73,49.97 -123.23,103.29 -29.26,35.06 -84.74,71.48 -140.17,86.19 71.3,12.39 148.12,-15.18 188.97,-47.68 -15.97,30.88 -80.89,75.82 -129.16,92.43 -76.9,26.44 -116.53,1.43 -178.79,-16.62 86.38,69.14 137.19,103.95 261.67,55.96 -14.13,2 -48.57,21.11 -74.74,27.54 -30.62,7.52 -60.97,11.19 -90.72,17.58 -54.85,11.78 -117.5,42.08 -145.89,73.71 92.92,-13.73 196.16,-61.01 264.94,15.7 -17.55,22.13 -80.17,55.92 -104.94,62.55 -56.73,15.17 -103.25,1.8 -158.01,-3.45 5.77,6.09 6.65,7.46 16.99,14.55 48.04,32.92 96.88,50.2 155.8,62.01 -130.31,17.8 -218.83,-21.38 -438.09,20.19 -65.42,12.4 -66.24,-4.89 -123.5,-21.02 -87.27,-24.58 -184.29,-1.65 -251.23,34.63 -84.92,46.01 -161.7,135.77 -190.89,229.21z"/>
  <path class="fil0" d="M787.78 689.95l-0.3 -89.54 -414.75 0.61c-37.91,-35.13 -79.22,-122.76 -92.17,-189.23 -18.82,-96.48 -5.61,-161.65 24.23,-243.98l555.49 -1.18c-25.58,-49.4 -110.68,-93.58 -185.67,-114.5 -164.24,-45.81 -381.79,-21.58 -545.03,19.28 -29.22,7.32 -95.81,21.76 -106.97,45.46 -12.56,26.68 -20.49,101.2 -21.04,133.8 -2.36,139.32 57.59,290.3 131.39,401.88 12.09,18.28 17.2,34.94 42.68,37.27 96.08,8.79 466.81,-3.88 612.14,0.13z"/>
  <path class="fil0" d="M450.69 1628.79l0.18 -20.71 -0.05 -24.59 -0.03 -68.85 0.94 -42.67 111.96 111.57c-21.45,24.55 -68.38,41.79 -113,45.25zm-152.72 -50.22l106 -107.96 1.66 155.63c-28.5,-1.01 -75.35,-18.09 -97.77,-37.1 -0.8,-0.67 -1.9,-1.7 -2.64,-2.38 -0.75,-0.7 -1.86,-1.94 -2.51,-2.6 -0.66,-0.67 -1.87,-2.19 -2.39,-2.75 -0.53,-0.57 -1.64,-1.84 -2.35,-2.84zm188.02 -141.53l162.1 -0.2c-0.47,22.68 -7.45,43.61 -15.55,62.47 -7.5,17.49 -17.69,39.72 -33.58,51.49 -17.19,-9.81 -105.4,-97.17 -112.97,-113.76zm-220.97 107.8c-3.45,-3.24 -4.24,-3.62 -7.87,-8.11 -19.58,-24.24 -36.48,-69.74 -36.55,-99.82l149.98 0.24 -105.56 107.69zm334.17 -269.39c24.35,17.8 46.3,76.76 50.14,116.28l-40.53 -0.17 -63.94 -0.01 -58.93 -0.11 113.26 -115.99zm-340.18 6.94l111.95 107.79 -151.62 1.55c5.16,-59.81 25.81,-71.12 39.67,-109.34zm37.36 -33.33c14.09,-21.78 73.48,-48.37 109.32,-48.66l-2.37 157.26 -106.95 -108.6zm154.18 -50.9c30.58,1.17 67.65,12.3 92.89,27.8 3.39,2.09 8.07,5.18 11.53,8.03l10.39 10.33 -114.25 111.81 -0.56 -157.97zm-44.05 -45.44c-135.75,14.21 -246.51,134.84 -232.76,286.98 12.05,133.52 135.38,250.96 287.73,233.98 137.81,-15.35 250.73,-136.25 233.01,-292.08 -15.12,-132.95 -138.22,-244.54 -287.98,-228.88z"/>
  <path class="fil0" d="M1145.14 1628.37l0.5 -156.99c17.64,13.05 106.14,100.66 113.5,117.49 -38.08,16.25 -57.8,36.95 -114,39.5zm-153.12 -49.8l106.58 -107.33 1.42 155.81c-23.23,-2.27 -41.18,-8.02 -60.9,-16.72l-47.1 -31.76zm-34.04 -34.38c-25.39,-22.58 -40.84,-64.82 -43.75,-107.37l149.12 -0.7c-7.94,18.72 -92.08,99.89 -105.37,108.07zm221.74 -107.45l162.97 -0.32c-2.56,56.13 -27.04,79.27 -43.65,114.71 -22.18,-6.98 -110.23,-99.02 -119.32,-114.39zm113.96 -161.01c25.58,29.13 45.65,64.52 49.85,115.98l-163.92 -1.56 114.07 -114.42zm-380.02 115.21c4.45,-44.51 21.27,-83.34 44.32,-107.7 16.85,14.24 100.3,94.24 108.68,108.83l-153 -1.13zm81.99 -147.65c0.69,-0.7 1.79,-1.93 2.57,-2.67l14.29 -10.56c23.7,-14.63 58.69,-28.92 87.49,-30.41l-1.63 158.48 -107.66 -109.07 4.94 -5.77zm149.85 -44.72c54.98,-0.19 78.68,24.91 114.46,39.31 -8.97,25.79 -38.73,46.07 -57.02,64.32 -17.08,17.05 -38.83,42.11 -57.57,54.67l0.13 -158.3zm-49.21 -45.14c-135.09,18.18 -248.98,137.93 -226.93,297.14 18.28,131.95 140.2,245.3 299.64,221.56 130.79,-19.47 239.87,-142.59 218.81,-297.25 -17.48,-128.38 -141.55,-241.64 -291.52,-221.45z"/>
 </g>
</svg>
