<?xml version="1.0" encoding="UTF-8"?>
<!DOCTYPE svg PUBLIC "-//W3C//DTD SVG 1.1//EN" "http://www.w3.org/Graphics/SVG/1.1/DTD/svg11.dtd">
<!-- Creator: CorelDRAW 2017 -->
<svg xmlns="http://www.w3.org/2000/svg" xml:space="preserve" width="35.263mm" height="16.764mm" version="1.1" style="shape-rendering:geometricPrecision; text-rendering:geometricPrecision; image-rendering:optimizeQuality; fill-rule:evenodd; clip-rule:evenodd"
viewBox="0 0 3526.3 1676.4"
 xmlns:xlink="http://www.w3.org/1999/xlink">
 <defs>
  <style type="text/css">
   <![CDATA[
    .fil0 {fill:black}
   ]]>
  </style>
 </defs>
 <g id="Слой_x0020_1">
  <metadata id="CorelCorpID_0Corel-Layer"/>
  <path class="fil0" d="M1521.26 296.93l47.74 290.92c-144.11,-1.49 -478.94,-2.8 -616.89,-20.6 -56.1,-7.24 -108.4,-36.18 -109.44,-101.07 -0.97,-60.58 40.47,-74.19 110.97,-99.92 144.2,-52.64 418.35,-76.42 567.62,-69.33zm96.04 1.59c255.94,6.61 423.49,55.83 623.32,202.8 -0.95,0.71 -2.59,0.27 -3.11,1.7 -2.24,6.12 -0.36,0.52 -6.39,3.13 -37.5,16.28 -48.22,28.9 -35.49,82.88l-484.02 0.07c-14.03,-64.02 -70.13,-177.03 -94.31,-290.58zm-620.61 -64.76l-7.04 46.12c-130.08,53.7 -263.83,101.63 -392.15,154.41 -76.86,31.61 -108.15,62.68 -202.26,69.84 -39.15,2.98 -76.14,13.4 -116.66,17.42 -129.15,12.8 -133.55,-16.95 -161.32,49.8 30.11,30.08 9.11,33.52 1.82,70.61 -5.74,29.22 -2.19,69.88 -2.69,101.15 -72.26,28.45 -42.92,255.39 -32.37,268.69 9.42,11.87 8.79,-3.83 55.76,61.52 36.5,50.8 312.87,66.79 393.88,64.72 -6.19,-115.21 18.73,-180.06 75.18,-245.63 50.14,-58.25 147.97,-96.08 235.32,-89.67 46.87,3.44 88.69,18.31 123.31,38.71 41.2,24.26 61.05,44.86 87.84,79.11 61.37,78.43 60.4,155.78 47.13,267.56l1604.64 -3.13c2.72,-11.16 -14.96,-95.39 -5.9,-145.4 9.45,-52.2 39.62,-110.86 69.63,-142.51 21.6,-22.77 43.87,-41.23 72.99,-57.75 191.73,-108.72 483.05,28.34 422.99,334.42 57.57,-2.47 170.12,-3.69 197.27,-39.11 22.59,-29.46 18.38,-49.23 14.03,-91.45 -4.29,-41.66 4.21,-67.48 8.77,-107.39 22.77,-199.19 -34.41,-211.8 -194.53,-261.92 -157.74,-49.37 -422.23,-91.23 -595.98,-100.38 -47.45,-2.5 -189.72,6 -222.06,-11.34l-69.01 -43.9c-26.72,-15.31 -47.94,-28.46 -73.64,-43.64 -136.11,-80.4 -325.87,-185.1 -482.31,-212.83 -210.22,-37.28 -442.82,-27.88 -657.8,-14.65 -42.19,2.6 -73.7,13.4 -106.39,-6.44 -38.83,-23.56 -41.06,-20.89 -88.45,-6.94z"/>
  <path class="fil0" d="M2788.53 1111.7c-9.53,-116.23 73.45,-207.24 178.54,-217.85 116.01,-11.72 210.05,76.74 218.72,181.55 9.5,115.08 -78.83,208.01 -182.75,215.62 -113.89,8.33 -206.08,-76.57 -214.51,-179.32zm-77.72 22.57c19.28,138.89 153.79,260.34 319.27,233.94 139.18,-22.2 258.19,-151.27 232.99,-318.3 -21,-139.11 -151.2,-257.66 -316.59,-234.03 -141.15,20.16 -258.87,151.17 -235.67,318.39z"/>
  <path class="fil0" d="M775.88 898.86c121.28,-30.05 216.26,53.02 239.39,147.12 30.34,123.42 -57.03,220.37 -151.69,241.22 -252.16,55.53 -345.17,-324.55 -87.7,-388.34zm319.34 248.95c31.29,-168.38 -82.09,-301.26 -217.84,-329.21 -169.4,-34.88 -300.94,83.87 -329.66,216.12 -36.38,167.56 83.11,303.86 215.7,330.83 167.83,34.13 306.73,-82.91 331.8,-217.74z"/>
  <path class="fil0" d="M653.34 1064.07l89.25 -0.51c-3.06,-20.65 -3.4,-14.22 -27.2,-37.75 -11.29,-11.17 -19.93,-20.96 -31.47,-30.31 -17.42,12.06 -25.93,42.73 -30.58,68.57z"/>
  <path class="fil0" d="M3065.46 1063.51l89.43 0.46c-4.52,-23.97 -14.03,-56.16 -29.66,-67.63l-48.59 44.03c-11.95,13 -8.53,4.53 -11.18,23.14z"/>
  <path class="fil0" d="M899.89 1063.08l89.19 0.88c-4.35,-25.67 -13.37,-56.09 -30.32,-68.28l-47.66 45.49c-11.49,12.39 -8.42,4.17 -11.21,21.91z"/>
  <path class="fil0" d="M2956.84 1172.02c-18.57,-0.54 -26.35,15.1 -37.94,26.71 -12.82,12.84 -23.1,18.79 -29.21,35.97 20.88,8.79 40.15,20.88 68.18,24.91l-1.03 -87.59z"/>
  <path class="fil0" d="M2819.18 1063.98l88.97 -0.56c-3.15,-18.83 -15.64,-25.3 -27.26,-36.84 -11.37,-11.29 -20.76,-20.46 -31.11,-31.19 -16.69,14.73 -25.86,40.04 -30.6,68.59z"/>
  <path class="fil0" d="M850.69 1259.78c27.73,-4.03 46.9,-15.92 67.56,-25.92 -4.54,-10.94 -47.09,-60.93 -67.48,-62.41l-0.08 88.33z"/>
  <path class="fil0" d="M849.87 1013.2c18.76,-3.18 56,-46.3 67.44,-59.46 -13,-15.13 -42.55,-24.75 -67.83,-29.2l0.39 88.66z"/>
  <path class="fil0" d="M3015.83 1013.56c19.86,-4.89 53.83,-46.22 67.09,-59.82 -14.76,-17.54 -41.54,-24.5 -67.41,-29.21l0.32 89.03z"/>
  <path class="fil0" d="M2890.84 949.96c5.91,14.93 18.08,22.23 29.01,33.15 10.84,10.84 20.48,27.53 38.28,29.41l0.25 -87.55c-28.72,3.9 -45.88,13.81 -67.54,24.99z"/>
  <path class="fil0" d="M3016.92 1259.71c26.43,-4.14 53.76,-14.15 66.88,-30.78 -22.66,-20.75 -47.97,-54.83 -67.02,-57.78l0.14 88.56z"/>
  <path class="fil0" d="M3153.87 1121.24l-86.78 0.37c1.25,18.78 44.63,54.03 58.14,66.49 14.03,-13.6 25.96,-40.01 28.64,-66.86z"/>
  <path class="fil0" d="M725.22 953.74c9.67,11.4 19.53,20.08 30.8,31.43 10.39,10.46 19.03,25.2 36.06,27.79l0.27 -88.21c-24.37,3.81 -54.64,14.27 -67.13,28.99z"/>
  <path class="fil0" d="M724.28 1227.95c6.02,9.22 1.16,5.82 14.18,14.12l53.27 17.63 -0.87 -88.08c-19.39,1.13 -41.33,33.97 -66.58,56.33z"/>
  <path class="fil0" d="M963.91 1189.32c7.88,-21.34 21.86,-40.27 24.08,-68.13l-86.56 0.31c0.48,16.17 16.3,25.34 26.16,35.11 12.37,12.26 19.37,24.03 36.32,32.71z"/>
  <path class="fil0" d="M678.7 1189.35c15.95,-8.43 22.37,-18.87 34.02,-30.54 10.08,-10.11 27.9,-20.9 28.33,-36.76l-86.58 -0.83c2.22,27.88 16.08,47.06 24.23,68.13z"/>
  <path class="fil0" d="M2906.75 1121.52l-86.87 0.68c2.92,26.85 16.42,47 24.33,67.5 14.99,-9.38 61.92,-52.69 62.54,-68.18z"/>
  <path class="fil0" d="M842.32 1074.28c-34.21,-15.73 -60.01,6.58 -41.91,33.25 13.69,20.19 54.75,14.99 41.91,-33.25z"/>
  <path class="fil0" d="M2999.92 1115.8c26.53,-33.72 3.99,-30.52 3.99,-44.69 -16.77,-4.52 -24.24,-3.24 -38.14,2.44 -7.03,27.72 0.53,47.4 34.15,42.25z"/>
 </g>
</svg>
