<?xml version="1.0" encoding="UTF-8"?>
<!DOCTYPE svg PUBLIC "-//W3C//DTD SVG 1.1//EN" "http://www.w3.org/Graphics/SVG/1.1/DTD/svg11.dtd">
<!-- Creator: CorelDRAW 2017 -->
<svg xmlns="http://www.w3.org/2000/svg" xml:space="preserve" width="35.263mm" height="16.764mm" version="1.1" style="shape-rendering:geometricPrecision; text-rendering:geometricPrecision; image-rendering:optimizeQuality; fill-rule:evenodd; clip-rule:evenodd"
viewBox="0 0 3526.3 1676.4"
 xmlns:xlink="http://www.w3.org/1999/xlink">
 <defs>
  <style type="text/css">
   <![CDATA[
    .fil0 {fill:black}
   ]]>
  </style>
 </defs>
 <g id="Слой_x0020_1">
  <metadata id="CorelCorpID_0Corel-Layer"/>
  <path class="fil0" d="M966.2 1083.75c15.63,-291.92 -382.44,-271.3 -375.95,-11.41 5.5,218.63 330.94,291.83 375.95,11.41zm-112.26 -271.17c125.22,40.75 219.37,164.46 168.57,341.51 -34.87,121.55 -170.68,222.77 -328.86,168.35 -308.9,-106.29 -169.72,-617.27 160.29,-509.86z"/>
  <path class="fil0" d="M2618.48 990.84c-71.45,136.22 34.81,286.72 168.79,285.4 130.26,2.18 249.68,-162.25 159.03,-305.39 -30.9,-48.78 -87.39,-93.35 -172.65,-88.91 -82.89,4.31 -126.45,54.63 -155.17,108.9zm-29.88 239.94c-25.61,-41.77 -43.19,-84.32 -48.29,-136.99 -2.76,-306.89 357.95,-363.02 468.45,-132.41 63.45,132.4 3.54,264.91 -73.44,325.21 -41.43,32.45 -102.86,55.68 -173.3,48.99 -68.71,-6.53 -136.42,-44.53 -173.42,-104.8z"/>
  <path class="fil0" d="M1212.31 447.11c-63.76,9.09 -224.53,56.73 -257.52,98.01 41.02,56.01 259.87,61.57 319.33,60.64l-61.81 -158.65zm830.64 188.86c-50.93,-57.49 -245.7,-170.32 -342.15,-206.37 -123.06,-46 -351.86,-45.76 -472.76,13.39l71.5 165.97 559.39 22.05c11.08,-18.62 10.07,-33.04 29.52,-45.67 70.39,-45.72 88.68,49.25 88.8,49.51l65.7 1.12zm460.01 457.64l12.82 141.24c-374.19,12.6 -1006.09,3.05 -1450.65,2.48 18.57,-64.91 32.68,-181.11 8.52,-248.11 -35.94,-96.21 -56.7,-126.4 -135.69,-179.41 -71,-41.92 -183.75,-54.35 -269.09,-25.31 -158.74,54 -205.57,200.33 -183.76,444.2 -65.28,-8.6 -226.91,-48.75 -291.84,-67.92 -54.99,-16.23 -79.08,-24.35 -98.94,-76.36 -13.73,-35.94 -30.21,-107.58 -24.69,-150.34l154.25 -5.86 -127 -24.82c4.95,-45.17 13,-89.06 20.29,-133.55 12.42,-75.85 -1.61,-78.91 -1.23,-144.46 263.9,-10 601.39,-133.59 850.93,-202.8 505.8,-140.27 642.22,-99.92 1055.2,109.24 41.3,20.9 134.52,81.12 167.97,93.68 25.46,9.56 428.09,17.89 506.49,23.97 180.12,13.99 280.47,30.95 431.09,98.26 105.2,47.02 271.5,141.52 324.81,212.52 -9.03,13.87 -71.67,39.68 -63.7,122.68 4.84,50.45 49.39,63.13 69.38,124.17 -49.27,41.6 -324.01,27.94 -406.18,28.18 27.68,-112.25 35.43,-194.24 -14.59,-292.49 -34.79,-68.33 -90.38,-126.87 -180.97,-147.5 -103.68,-23.62 -195.11,4.77 -257.12,62.06 -62.86,58.1 -87.68,119.26 -96.3,236.25z"/>
 </g>
</svg>
