<?xml version="1.0" encoding="UTF-8"?>
<!DOCTYPE svg PUBLIC "-//W3C//DTD SVG 1.1//EN" "http://www.w3.org/Graphics/SVG/1.1/DTD/svg11.dtd">
<!-- Creator: CorelDRAW X8 -->
<svg xmlns="http://www.w3.org/2000/svg" xml:space="preserve" width="156mm" height="110mm" version="1.1" style="shape-rendering:geometricPrecision; text-rendering:geometricPrecision; image-rendering:optimizeQuality; fill-rule:evenodd; clip-rule:evenodd"
viewBox="0 0 15600 11000"
 xmlns:xlink="http://www.w3.org/1999/xlink">
 <defs>
  <style type="text/css">
   <![CDATA[
    .fil7 {fill:#00CCFF}
    .fil4 {fill:#050007}
    .fil6 {fill:#053F4E}
    .fil5 {fill:#7EB500}
    .fil2 {fill:#B0D23D}
    .fil1 {fill:#E0F2F9}
    .fil3 {fill:#F2F2F2}
    .fil0 {fill:white}
   ]]>
  </style>
 </defs>
 <g id="Слой_x0020_1">
  <metadata id="CorelCorpID_0Corel-Layer"/>
  <polygon class="fil0" points="5394,201 5,2718 5,5400 2071,6716 2071,7373 5349,9460 6029,9126 8992,10987 14923,8208 14923,7146 12894,5892 15494,4669 15494,1658 14808,1221 14405,1408 12283,38 8274,1907 8274,1589 7588,1151 7185,1341 "/>
  <polygon class="fil1" points="2346,4920 2725,5174 2722,6855 2346,6615 "/>
  <polygon class="fil1" points="4753,6468 5207,6772 5207,8411 4753,8131 "/>
  <polygon class="fil1" points="4172,6086 4545,6329 4545,8000 4172,7768 "/>
  <polygon class="fil1" points="2936,5315 3379,5611 3379,7261 2936,6980 "/>
  <polygon class="fil2" points="11690,6471 11688,5296 14322,4053 13212,3335 12291,2734 11026,3321 12104,3999 12099,4848 11957,4915 10113,3740 9043,4239 10054,4891 10054,5814 9907,5884 8079,4736 7489,4987 4871,3343 4871,3236 1217,4949 2223,5563 2223,4840 2349,4773 3507,5558 3510,7125 4041,7458 4041,5993 4161,5924 5333,6714 5333,8283 6061,7933 9008,9775 13596,7642 "/>
  <polygon class="fil3" points="9048,4239 9774,3900 9774,1963 8864,2406 8864,4117 "/>
  <rect class="fil4" transform="matrix(0.904555 -0.420556 0.420556 0.904555 5544.88 1656.52)" width="644.84" height="10.7"/>
  <rect class="fil4" transform="matrix(0.904555 -0.420556 0.420556 0.904555 4870.15 1234.06)" width="644.84" height="10.7"/>
  <rect class="fil4" x="5354" y="327" width="10.6735" height="683.274"/>
  <rect class="fil4" x="6123" y="1389" width="10.6735" height="1088.98"/>
  <rect class="fil4" x="5541" y="1661" width="10.6735" height="2105.88"/>
  <polygon class="fil4" points="1220,4955 1217,4944 4868,3233 4874,3241 "/>
  <rect class="fil4" transform="matrix(0.536369 -0.841013 0.841013 0.536369 -0.920513 5403.54)" width="10.7" height="2458.95"/>
  <rect class="fil4" transform="matrix(0.523102 -0.849392 0.849392 0.523102 512.767 4672.45)" width="10.7" height="2012.11"/>
  <polygon class="fil4" points="2221,5569 648,4608 654,4597 2226,5558 "/>
  <rect class="fil4" transform="matrix(0.904057 -0.421554 0.421554 0.904056 10258.6 1104.88)" width="2244.89" height="10.7"/>
  <polygon class="fil4" points="8610,4114 8605,4103 8741,4034 8746,4042 "/>
  <polygon class="fil4" points="10052,4896 8741,4042 8746,4034 10057,4888 "/>
  <polygon class="fil4" points="9913,4963 9907,4955 10052,4888 10054,4896 "/>
  <rect class="fil4" x="10110" y="1178" width="10.6735" height="2567.63"/>
  <polygon class="fil4" points="9051,4245 9048,4234 10116,3735 10121,3743 "/>
  <rect class="fil4" transform="matrix(0.533775 -0.842708 0.842709 0.533775 10116.3 3750.75)" width="10.7" height="2188.7"/>
  <rect class="fil4" transform="matrix(0.904555 -0.420556 0.420556 0.904555 11022.4 3318.16)" width="1399.38" height="10.7"/>
  <polygon class="fil4" points="11960,4071 10556,3201 10561,3193 11965,4063 "/>
  <polygon class="fil4" points="12101,4002 10697,3132 10703,3124 12107,3994 "/>
  <rect class="fil4" x="11957" y="4066" width="10.6735" height="848.753"/>
  <rect class="fil4" transform="matrix(0.542155 -0.837322 0.837322 0.542154 12288.5 2737.51)" width="10.7" height="2432.19"/>
  <polygon class="fil4" points="12897,5897 12891,5889 15494,4669 15499,4680 "/>
  <polygon class="fil4" points="13593,7645 11690,6468 11696,6460 13599,7637 "/>
  <rect class="fil4" x="5341" y="8416" width="10.6735" height="1032.93"/>
  <rect class="fil4" x="6029" y="8088" width="10.6735" height="1035.59"/>
  <polygon class="fil4" points="8989,9951 6035,8093 5346,8424 5341,8414 6035,8080 6037,8083 8995,9943 "/>
  <rect class="fil4" transform="matrix(0.902161 -0.425743 0.425744 0.902161 8986.77 9942.3)" width="6576.81" height="10.7"/>
  <polygon class="fil4" points="8992,10992 8989,10992 6035,9129 5346,9457 5215,9375 5221,9367 5346,9444 6035,9118 6037,9118 8992,10981 12945,9124 12950,9134 "/>
  <polygon class="fil4" points="9008,9780 9005,9778 6067,7941 5210,8350 5205,8342 6069,7928 6072,7931 9008,9770 14658,7141 11690,5299 11696,5288 14680,7141 14669,7146 "/>
  <polygon class="fil4" points="5343,8427 5207,8350 5213,8342 5349,8419 "/>
  <polygon class="fil4" points="5215,9375 2063,7368 2068,7359 5221,9367 "/>
  <polygon class="fil4" points="2076,7376 2066,7376 2066,6343 2221,6268 2226,6276 2076,6351 "/>
  <rect class="fil4" transform="matrix(0.89478 -0.441005 0.441006 0.894779 2344.65 6380.92)" width="422.76" height="10.7"/>
  <polygon class="fil4" points="2349,6214 2343,6206 2714,6030 2717,6041 "/>
  <rect class="fil4" transform="matrix(0.541057 -0.83802 0.83802 0.541057 2341.37 5799.24)" width="10.7" height="444.16"/>
  <rect class="fil4" x="2720" y="5174" width="10.6735" height="1814.96"/>
  <rect class="fil4" x="2802" y="5230" width="10.6735" height="1809.62"/>
  <rect class="fil4" transform="matrix(0.899668 -0.430831 0.430831 0.899667 3377.94 7175.8)" width="149.84" height="10.7"/>
  <rect class="fil4" x="5333" y="6716" width="10.6735" height="1569.4"/>
  <rect class="fil4" transform="matrix(0.556619 -0.827845 0.827846 0.556619 2344.77 4776.44)" width="10.7" height="1407.41"/>
  <rect class="fil4" transform="matrix(0.876525 -0.476218 0.476218 0.876525 2219.47 4838.21)" width="144.49" height="10.7"/>
  <rect class="fil4" transform="matrix(0.902161 -0.425743 0.425744 0.902161 3378.82 5613.63)" width="147.16" height="10.7"/>
  <rect class="fil4" transform="matrix(0.899668 -0.430831 0.430831 0.899667 2807.36 7037.69)" width="139.14" height="10.7"/>
  <rect class="fil4" x="2931" y="5315" width="10.6735" height="1665.49"/>
  <polygon class="fil4" points="4551,8139 4543,8139 4543,6329 4553,6329 "/>
  <rect class="fil4" x="4625" y="6385" width="10.6735" height="1806.95"/>
  <rect class="fil4" transform="matrix(0.55632 -0.828045 0.828045 0.556319 4160.9 5931.01)" width="10.7" height="1410.08"/>
  <polygon class="fil4" points="4049,5993 4046,5982 4164,5921 4166,5932 "/>
  <rect class="fil4" transform="matrix(0.899668 -0.430831 0.430831 0.899667 5201.46 6775.55)" width="149.84" height="10.7"/>
  <rect class="fil4" transform="matrix(0.557816 -0.827047 0.827048 0.557816 4045.3 5995.93)" width="10.7" height="1404.73"/>
  <rect class="fil4" x="4751" y="6468" width="10.6735" height="1665.49"/>
  <polygon class="fil4" points="4174,7763 4166,7763 4166,6081 4177,6081 "/>
  <rect class="fil4" transform="matrix(0.899668 -0.430831 0.430831 0.899667 4042.16 7817.15)" width="139.14" height="10.7"/>
  <g id="_912118064">
   <rect class="fil4" transform="matrix(0.452178 -0.889193 0.889194 0.452178 9708.27 2076.4)" width="131.11" height="10.7"/>
   <g>
    <rect class="fil4" x="8931" y="2440" width="10.6735" height="1721.54"/>
    <rect class="fil4" x="9707" y="2080" width="10.6735" height="1846.99"/>
    <rect class="fil4" transform="matrix(0.902161 -0.425743 0.425744 0.902161 8932.9 2443.13)" width="861.57" height="10.7"/>
    <rect class="fil4" x="9769" y="1963" width="10.6735" height="1937.73"/>
    <rect class="fil4" transform="matrix(0.897273 -0.435918 0.435918 0.897273 8862.07 2400.51)" width="1014.08" height="10.7"/>
    <rect class="fil4" x="8858" y="2406" width="10.6735" height="1710.86"/>
    <polygon class="fil4" points="8933,2446 8861,2411 8864,2400 8939,2435 "/>
    <polygon class="fil4" points="8939,2990 8933,2982 9710,2617 9715,2627 "/>
    <rect class="fil4" transform="matrix(0.902161 -0.425743 0.425744 0.902161 8933.26 3209.11)" width="861.57" height="10.7"/>
   </g>
  </g>
  <rect class="fil4" transform="matrix(0.537367 -0.840414 0.840415 0.537366 2341.92 5630.98)" width="10.7" height="446.84"/>
  <rect class="fil4" transform="matrix(0.901663 -0.426741 0.426741 0.901662 11962.5 4058.55)" width="157.86" height="10.7"/>
  <rect class="fil4" transform="matrix(0.901663 -0.426741 0.426741 0.901662 11963 4909.87)" width="157.86" height="10.7"/>
  <rect class="fil4" x="12099" y="3999" width="10.6735" height="856.764"/>
  <rect class="fil4" transform="matrix(0.532279 -0.843606 0.843607 0.532279 14888.2 3794.25)" width="10.7" height="139.14"/>
  <g id="_912114480">
   <path class="fil4" d="M7591 2198l-358 -227 0 -297 8 6 350 227 0 291zm-347 -233l336 214 0 -267 -336 -219 0 272z"/>
   <rect class="fil4" transform="matrix(0.537167 -0.840514 0.840514 0.537167 7255.96 1949.36)" width="10.7" height="363.89"/>
   <rect class="fil4" transform="matrix(0.537167 -0.840514 0.840514 0.537167 7255.85 1741.24)" width="10.7" height="363.89"/>
   <rect class="fil4" transform="matrix(0.537167 -0.840514 0.840514 0.537167 7256.45 1783.15)" width="10.7" height="363.89"/>
   <rect class="fil4" transform="matrix(0.537167 -0.840514 0.840514 0.537167 7255.44 1824.2)" width="10.7" height="363.89"/>
   <rect class="fil4" transform="matrix(0.537167 -0.840514 0.840514 0.537167 7256.04 1866.1)" width="10.7" height="363.89"/>
   <rect class="fil4" transform="matrix(0.537167 -0.840514 0.840514 0.537167 7255.05 1907.16)" width="10.7" height="363.89"/>
  </g>
  <polygon class="fil4" points="5213,8566 5205,8561 4041,7824 4041,7821 4044,5988 4052,5988 4052,7819 5202,8547 5202,6772 5213,6772 "/>
  <rect class="fil4" transform="matrix(0.531381 -0.844205 0.844205 0.531381 4749.98 8137.39)" width="10.7" height="537.81"/>
  <polygon class="fil4" points="4543,8008 4166,7768 4174,7760 4551,8000 "/>
  <rect class="fil4" transform="matrix(0.532778 -0.843307 0.843307 0.532778 3508.9 7122.78)" width="10.7" height="634.14"/>
  <rect class="fil4" transform="matrix(0.899668 -0.430831 0.430831 0.899667 4627.49 8187.87)" width="139.14" height="10.7"/>
  <rect class="fil4" x="8984" y="9946" width="10.6735" height="1035.59"/>
  <rect class="fil4" x="12286" y="161" width="10.6735" height="2572.96"/>
  <polygon class="fil4" points="8738,4039 8295,2024 8301,2021 10116,1173 10121,1183 8309,2029 8749,4037 "/>
  <rect class="fil4" transform="matrix(0.974482 -0.213071 0.213071 0.974481 10113.5 1178.48)" width="10.7" height="2070.97"/>
  <polygon class="fil4" points="10561,3201 10559,3193 10697,3124 10703,3132 "/>
  <rect class="fil4" transform="matrix(0.974681 -0.212273 0.212273 0.974681 10256 1108.52)" width="10.7" height="2070.97"/>
  <polygon class="fil4" points="512,4672 96,2785 5,2718 11,2710 107,2777 107,2779 520,4669 "/>
  <rect class="fil4" transform="matrix(0.899668 -0.430831 0.430831 0.899667 511.683 4662.01)" width="149.84" height="10.7"/>
  <polygon class="fil4" points="6128,1394 5453,970 5458,962 6133,1386 "/>
  <polygon class="fil4" points="5544,1666 4868,1242 4874,1234 5549,1656 "/>
  <polygon class="fil4" points="5544,3174 4868,2753 4874,2745 5549,3166 "/>
  <polygon class="fil4" points="5544,3081 4868,2659 4874,2649 5549,3073 "/>
  <rect class="fil4" x="4866" y="1237" width="10.6735" height="2105.88"/>
  <rect class="fil4" x="5205" y="2961" width="10.6735" height="595.203"/>
  <rect class="fil4" x="5205" y="1450" width="10.6735" height="1417.26"/>
  <rect class="fil4" x="5250" y="2133" width="10.6735" height="157.469"/>
  <rect class="fil4" x="5151" y="2056" width="10.6735" height="157.469"/>
  <rect class="fil4" x="5250" y="3238" width="10.6735" height="157.469"/>
  <rect class="fil4" x="5151" y="3161" width="10.6735" height="154.806"/>
  <rect class="fil4" transform="matrix(0.908845 -0.411279 0.411279 0.908844 6222.34 3166.89)" width="650.19" height="10.7"/>
  <polygon class="fil4" points="7489,4992 7487,4989 4868,3348 4874,3340 7489,4981 8076,4730 8082,4741 "/>
  <rect class="fil4" x="6219" y="3169" width="10.6735" height="1022.24"/>
  <rect class="fil4" transform="matrix(0.526793 -0.847098 0.847098 0.526793 6126.44 2483.36)" width="10.7" height="2303.76"/>
  <rect class="fil4" transform="matrix(0.527491 -0.846699 0.846699 0.527491 5544 2756.26)" width="10.7" height="2301.08"/>
  <polygon class="fil4" points="6819,3548 6814,3537 7401,3265 7407,3276 "/>
  <rect class="fil4" x="8076" y="3692" width="10.6735" height="1043.6"/>
  <rect class="fil4" transform="matrix(0.997525 -0.00175522 0.00175522 0.997524 6813.1 3542.77)" width="10.7" height="1024.78"/>
  <polygon class="fil4" points="6817,4330 6221,3956 6227,3946 6822,4322 "/>
  <rect class="fil4" transform="matrix(0.526893 -0.846998 0.846998 0.526892 6320.56 3387.72)" width="10.7" height="462.89"/>
  <polygon class="fil4" points="6221,3361 5544,2940 5549,2929 6227,3353 "/>
  <rect class="fil4" transform="matrix(0.904555 -0.420556 0.420556 0.904555 5547.7 2744.7)" width="639.49" height="10.7"/>
  <rect class="fil4" x="5888" y="2966" width="10.6735" height="1019.58"/>
  <rect class="fil4" x="5939" y="3551" width="10.6735" height="157.469"/>
  <rect class="fil4" x="5837" y="3471" width="10.6735" height="154.806"/>
  <path class="fil4" d="M5717 2972c-11,0 -21,-8 -24,-19 -5,-13 0,-29 13,-32 6,-3 14,0 19,3 5,2 11,8 13,16 3,8 3,16 0,21 -2,5 -8,8 -13,11 -3,0 -5,0 -8,0zm-3 -43c0,0 -2,0 -2,0 -8,3 -11,11 -8,19 2,8 10,13 18,10 3,0 6,-2 6,-5 2,-5 2,-8 0,-13 -3,-6 -6,-8 -8,-11 -3,0 -6,0 -6,0z"/>
  <path class="fil4" d="M6043 3182c-3,0 -6,0 -11,-2 -5,-3 -11,-8 -13,-14 -3,-5 -3,-13 -3,-18 3,-8 5,-11 11,-14 10,-5 26,0 32,14 5,13 2,29 -11,34 3,-2 0,0 -5,0zm-6 -42c-2,0 -2,0 -5,0l0 0c-3,2 -5,5 -5,8 0,5 0,8 2,13 3,5 6,8 8,8 3,3 8,3 11,0 5,-3 8,-13 5,-21 -2,-6 -10,-8 -16,-8z"/>
  <path class="fil4" d="M6544 3276c-48,0 -88,-32 -88,-70 0,-37 40,-69 88,-69 48,0 88,32 88,69 0,38 -40,70 -88,70zm0 -131c-42,0 -77,27 -77,59 0,32 35,58 77,58 43,0 78,-26 78,-58 0,-32 -35,-59 -78,-59z"/>
  <path class="fil4" d="M6803 3150c-48,0 -88,-32 -88,-69 0,-40 40,-69 88,-69 48,0 88,32 88,69 0,37 -40,69 -88,69zm0 -130c-42,0 -77,26 -77,58 0,32 35,59 77,59 43,0 78,-27 78,-59 0,-29 -35,-58 -78,-58z"/>
  <path class="fil4" d="M6803 3423c-48,0 -88,-32 -88,-70 0,-37 40,-69 88,-69 48,0 88,32 88,69 0,38 -40,70 -88,70zm0 -131c-42,0 -77,27 -77,59 0,32 35,58 77,58 43,0 78,-26 78,-58 0,-32 -35,-59 -78,-59z"/>
  <path class="fil4" d="M7062 3297c-48,0 -88,-32 -88,-69 0,-40 40,-70 88,-70 48,0 88,32 88,70 0,37 -40,69 -88,69zm0 -131c-42,0 -77,27 -77,59 0,32 35,59 77,59 43,0 78,-27 78,-59 0,-32 -35,-59 -78,-59z"/>
  <polygon class="fil4" points="7492,3970 7487,3962 8079,3687 8084,3698 "/>
  <rect class="fil4" x="7153" y="3756" width="10.6735" height="1024.92"/>
  <rect class="fil4" x="7204" y="4159" width="10.6735" height="157.469"/>
  <rect class="fil4" x="7102" y="4082" width="10.6735" height="157.469"/>
  <rect class="fil4" x="7489" y="3964" width="10.6735" height="1019.58"/>
  <polygon class="fil4" points="11701,6471 11690,6471 11690,5291 11693,5291 14885,3786 15259,2080 12288,166 12294,156 15270,2075 15270,2077 14896,3791 14893,3794 11701,5299 "/>
  <rect class="fil4" transform="matrix(0.533376 -0.843008 0.843008 0.533376 2934.13 6985.54)" width="10.7" height="524.43"/>
  <rect class="fil4" transform="matrix(0.899668 -0.430831 0.430831 0.899667 2219.26 6666.56)" width="139.14" height="10.7"/>
  <polygon class="fil4" points="4044,7605 3376,7186 3382,7178 4049,7597 "/>
  <polygon class="fil4" points="2221,6449 2068,6351 2074,6343 2226,6439 "/>
  <polygon class="fil4" points="9907,5889 9905,5886 8076,4741 8082,4733 9910,5878 10049,5814 10049,4891 10060,4891 10060,5819 "/>
  <circle class="fil5" cx="2800" cy="6060" r="334"/>
  <path class="fil0" d="M2800 5876l0 0c-43,0 -75,21 -94,48 -29,42 -18,64 -21,114l-21 0 0 208 133 1 134 0 0 -209 -22 0c-3,-50 8,-72 -21,-114 -14,-27 -43,-48 -88,-48l0 0zm0 208c13,0 26,13 26,26 0,8 -5,19 -13,24l0 35c0,8 -5,13 -13,13 -8,0 -14,-5 -14,-13l0 -35c-8,-5 -13,-13 -13,-24 0,-16 13,-26 27,-26zm-70 -48c-2,-59 0,-120 70,-120 0,0 0,0 2,0 3,0 0,0 3,0 69,0 72,61 69,120l-72 0 -72 0z"/>
  <rect class="fil4" transform="matrix(0.899668 -0.430831 0.430831 0.899667 511.683 4662.01)" width="149.84" height="10.7"/>
  <g id="_912086992">
   <path class="fil0" d="M12120 3129l0 0c-3,-27 -13,-53 -32,-83 -32,-48 -88,-88 -149,-114 -48,-19 -99,-30 -145,-27l-37 -30 40 -18 -3 -3 3 0 53 -283c0,-5 3,-8 3,-13l0 0 0 0c0,-35 -19,-67 -48,-86l-69 -40 -374 182c-13,8 -21,24 -19,40l24 267 6 0 -3 3 69 42c11,6 22,11 32,14 6,5 43,50 67,120 24,74 16,109 16,109l-2 3 24 18 -123 62 5 3 0 48 326 200 267 -126 2 -2 0 -43 6 -3 -67 -42 11 -3c2,0 61,-13 93,-51 35,-37 43,-88 24,-144z"/>
   <g>
    <path class="fil4" d="M11941 3236c-34,0 -72,-8 -109,-24 -46,-19 -86,-46 -112,-78 -27,-32 -35,-64 -24,-90l0 0c10,-27 40,-46 80,-48 40,-6 88,2 133,21 96,40 158,115 136,171 -10,26 -40,45 -80,48 -8,0 -16,0 -24,0zm-141 -235c-8,0 -16,0 -24,0 -38,5 -64,19 -72,43l0 0c-11,24 -3,53 21,82 24,30 64,56 107,75 45,19 91,27 131,21 37,-5 64,-18 72,-42 18,-48 -38,-120 -131,-158 -35,-13 -70,-21 -104,-21z"/>
    <path class="fil4" d="M12040 3201l-8 -8c8,-8 13,-16 16,-24 24,-61 -32,-139 -125,-179 -57,-24 -118,-26 -163,-8 -24,11 -43,27 -51,48 -3,3 -3,6 -3,8l-10 0c0,-5 2,-8 5,-13 11,-24 29,-40 56,-53 48,-19 112,-16 171,8 99,42 157,125 131,192 -3,10 -11,18 -19,29z"/>
    <path class="fil4" d="M11941 3281c-42,0 -88,-8 -133,-27 -64,-26 -118,-66 -150,-114 -34,-48 -42,-102 -24,-144l0 0c19,-43 59,-75 118,-86 58,-10 125,-5 189,22 134,53 211,170 176,258 -26,59 -96,91 -176,91zm-136 -368c-19,0 -37,3 -53,5 -56,11 -94,40 -110,80l0 0c-16,40 -8,88 24,134 32,48 83,88 147,112 128,51 259,27 294,-59 34,-85 -43,-195 -171,-245 -43,-16 -88,-27 -131,-27z"/>
    <path class="fil4" d="M11640 3276l-86 -64 0 -3c0,0 11,-32 -16,-107 -26,-74 -67,-120 -67,-120l8 -8c3,3 43,48 70,126 21,64 19,98 16,109l80 59 -5 8z"/>
    <path class="fil4" d="M11824 3420c-24,0 -54,-5 -83,-16 -48,-19 -88,-53 -101,-88 -8,-19 -8,-37 -3,-51l11 3c-6,13 -6,29 2,43 14,32 51,64 96,80 72,26 142,18 158,-22 3,-5 3,-10 3,-16l0 -2 96 -35c0,0 58,-13 88,-48 29,-35 37,-86 21,-134l11 -2c18,53 10,106 -22,144 -32,37 -90,51 -93,51l-88 32c0,5 -3,10 -3,16 -16,29 -50,45 -93,45z"/>
    <polygon class="fil4" points="11797,3495 11794,3492 11455,3289 11586,3228 11592,3236 11477,3292 11797,3481 12040,3369 11981,3332 11987,3324 12061,3372 "/>
    <polygon class="fil4" points="11786,3543 11461,3340 11461,3289 11471,3289 11471,3335 11786,3532 12045,3409 12045,3369 12056,3369 12056,3415 "/>
    <path class="fil4" d="M11367 2916l-24 -267c-2,-16 6,-32 22,-40l373 -182 70 40c34,21 53,62 45,102l-53 282 -11 -2 53 -283c8,-35 -10,-72 -40,-91l-64 -37 -368 179c-11,5 -16,16 -16,29l24 267 -11 3z"/>
    <rect class="fil4" transform="matrix(0.654576 -0.752732 0.752732 0.654575 11745.6 2878.15)" width="10.7" height="56.19"/>
    <rect class="fil4" transform="matrix(0.705549 -0.70515 0.70515 0.705549 11705.9 2898.96)" width="10.7" height="34.78"/>
    <rect class="fil4" transform="matrix(0.567592 -0.820264 0.820265 0.567591 11597.6 2950.68)" width="10.7" height="56.19"/>
    <rect class="fil4" transform="matrix(0.659962 -0.748043 0.748044 0.659962 11565.5 2963.42)" width="10.7" height="82.95"/>
    <path class="fil4" d="M11920 3311c-43,0 -88,-8 -134,-27 -112,-46 -186,-134 -184,-219l-82 -83 8 -8 85 86 0 2c-3,80 72,168 179,211 117,48 243,30 285,-43l8 6c-29,48 -93,75 -165,75z"/>
    <path class="fil4" d="M11506 2705c-24,0 -51,-8 -72,-22l-83 -50 6 -8 82 50c38,24 83,27 123,8l288 -133 6 8 -288 133c-22,8 -40,14 -62,14z"/>
    <path class="fil4" d="M11504 2982c-22,0 -43,-5 -62,-16l-69 -42 5 -8 69 42c32,19 70,22 102,6l245 -115 6 8 -246 115c-16,8 -34,10 -50,10z"/>
   </g>
  </g>
  <circle class="fil5" cx="4625" cy="7245" r="334"/>
  <path class="fil0" d="M4625 7058l0 0c-42,0 -74,21 -93,48 -29,43 -19,64 -21,115l-22 0 0 208 134 0 133 0 0 -208 -19 0c-2,-51 8,-72 -21,-115 -13,-24 -45,-48 -91,-48l0 0zm0 208c14,0 27,13 27,27 0,8 -5,18 -13,24l0 34c0,9 -6,14 -14,14 -8,0 -13,-5 -13,-14l0 -34c-8,-6 -13,-14 -13,-24 0,-16 13,-27 26,-27zm-69 -48c-3,-59 0,-120 69,-120 0,0 0,0 3,0 3,0 0,0 3,0 69,0 72,61 69,120l-72 0 -72 0z"/>
  <g id="_912093712">
   <path class="fil0" d="M12496 6975c0,0 -2,0 0,0l0 0 -112 -67 88 -424c6,-29 -8,-56 -32,-69l-1174 -684c-21,-13 -45,-16 -67,-10 -2,0 -8,2 -10,2 -14,3 -32,6 -51,16 -13,8 -24,16 -38,27 -40,37 -66,88 -80,144l-40 195 -104 -59c-21,-8 -45,-8 -66,3l-414 227c-80,43 -128,125 -128,216l0 475c0,22 13,43 32,54l149 88 3 2 3 0 0 0 0 0c8,6 18,8 26,8 8,0 19,-2 30,-8l58 -32 1153 673 0 48c0,19 8,37 27,48l158 93 0 0 0 0 0 0 0 0c8,6 18,8 29,8 8,0 19,-2 29,-8l531 -307c22,-13 38,-37 38,-61l0 -531c0,-29 -16,-54 -38,-67z"/>
   <g>
    <path class="fil4" d="M11941 7944c-10,0 -21,-3 -29,-8 -19,-11 -29,-29 -29,-51l0 -475c0,-91 50,-173 128,-216l413 -224c24,-14 54,-14 78,2 24,14 37,38 37,67l0 531c0,27 -13,48 -37,62l0 0 -531 304c-11,5 -19,8 -30,8zm521 -974c-11,0 -22,2 -32,8l-414 224c-77,40 -123,120 -123,208l0 475c0,19 8,35 24,43 16,8 32,8 48,0l531 -307c19,-11 32,-32 32,-53l0 -531c0,-24 -10,-46 -32,-56 -10,-6 -24,-11 -34,-11z"/>
    <path class="fil4" d="M11912 7936l-158 -93c-16,-11 -26,-30 -26,-51l0 -475c0,-91 50,-174 128,-216l414 -225c24,-13 53,-13 77,3l152 91 -5 8 -152 -91c-22,-13 -46,-13 -67,-3l-414 225c-77,40 -123,120 -123,208l0 475c0,19 8,32 22,40l157 93 -5 11z"/>
    <path class="fil4" d="M10487 7114c-11,0 -22,-3 -30,-8 -18,-11 -29,-29 -29,-51l0 -475c0,-91 51,-173 128,-216l424 -232 6 8 -425 232c-77,40 -122,120 -122,208l0 475c0,19 8,35 24,43 16,8 32,8 48,0l58 -35 6 8 -59 35c-11,5 -19,8 -29,8z"/>
    <path class="fil4" d="M10457 7106l-155 -91c-18,-8 -32,-29 -32,-51l0 -475c0,-90 51,-173 129,-216l413 -221c22,-14 46,-14 67,-3l107 59 -6 8 -106 -59c-19,-8 -40,-8 -59,3l-414 221c-77,40 -123,120 -123,208l0 475c0,19 11,35 27,43l155 91 -3 8z"/>
    <path class="fil4" d="M11730 7410l-1254 -734c-3,0 -3,-2 -3,-5 0,-3 0,-3 3,-5l446 -243c2,0 2,0 5,0l1049 616 -5 8 -1047 -616 -435 237 1247 729 -6 13z"/>
    <path class="fil4" d="M11730 7608l-1254 -729c-3,0 -3,-3 -3,-5l0 -203 11 0 0 200 1252 729 -6 8z"/>
    <path class="fil4" d="M11730 7747l-1195 -700c-3,0 -3,-2 -3,-5l0 -136 11 0 0 133 1193 697 -6 11z"/>
    <path class="fil4" d="M12387 6911l-11 -3 88 -424c6,-27 -5,-51 -26,-61l-1172 -684c-19,-10 -40,-16 -61,-10 -3,0 -8,2 -11,2 -13,3 -29,6 -48,16 -13,8 -24,16 -35,27 -37,35 -67,83 -77,139l-110 520 -10 -2 109 -521c11,-56 40,-107 80,-144 11,-11 22,-19 38,-27 18,-10 34,-13 50,-16 6,0 8,-2 11,-2 24,-6 48,-3 69,10l1169 684c24,13 38,42 32,72l-85 424z"/>
    <path class="fil4" d="M12184 6932l-11 -2 65 -318c10,-56 40,-107 80,-144 10,-11 24,-19 37,-27 19,-10 35,-13 51,-16 5,0 8,-2 10,-2 11,-3 24,-3 35,-3l-3 11c-10,-3 -21,0 -32,2 -2,0 -8,3 -10,3 -14,3 -30,5 -48,16 -14,8 -24,16 -35,27 -37,34 -67,82 -77,138l-62 315z"/>
   </g>
  </g>
  <rect class="fil4" x="8149" y="1514" width="10.6735" height="2.67337"/>
  <polygon class="fil4" points="9913,5884 9905,5884 9905,4957 8602,4111 8602,4109 8165,2091 5362,329 259,2713 654,4602 646,4602 248,2707 251,2705 5362,319 5365,319 8175,2085 8175,2085 8613,4106 9913,4949 "/>
  <g id="_912094256">
   <polygon class="fil3" points="7753,1704 8042,1568 7585,1282 7300,1416 "/>
   <path class="fil4" d="M7751 1709l0 0 -462 -293 296 -139 467 293 -301 139zm-441 -293l443 280 278 -131 -446 -280 -275 131z"/>
  </g>
  <polygon class="fil4" points="11,5400 0,5400 0,2710 3,2710 5394,196 5397,196 7185,1335 7585,1149 7588,1151 8279,1586 8279,1909 8269,1909 8269,1594 7585,1159 7185,1346 7182,1346 5394,206 11,2718 "/>
  <rect class="fil4" x="7580" y="1282" width="10.6735" height="317.622"/>
  <g id="_912093872">
   <polygon class="fil3" points="14973,1771 15264,1634 15264,1634 14808,1349 14520,1482 "/>
   <path class="fil4" d="M14973 1776l0 0 -464 -294 299 -139 467 294 -302 139zm-443 -294l443 281 278 -131 -443 -278 -278 128z"/>
  </g>
  <polygon class="fil4" points="15499,4672 15488,4672 15488,1661 14808,1226 14405,1413 14402,1413 12283,44 8159,1968 8157,1965 7860,1779 8271,1586 8277,1594 7882,1779 8159,1955 12286,33 12286,33 14407,1402 14808,1215 14810,1218 15499,1656 "/>
  <rect class="fil4" x="14802" y="1349" width="10.6735" height="317.622"/>
  <polygon class="fil4" points="12950,9134 12945,9124 14917,8208 14917,7151 11949,5315 11957,5310 15003,3858 15382,2147 15478,2099 15083,1845 15491,1653 15496,1661 15104,1845 15499,2101 15390,2155 15013,3866 11971,5315 14925,7146 14925,8214 "/>
  <polygon class="fil4" points="3384,7410 3376,7405 2218,6674 2218,4840 2229,4840 2229,6668 3374,7392 3374,5617 3384,5617 "/>
  <rect class="fil4" x="2341" y="4920" width="10.6735" height="1692.18"/>
  <rect class="fil4" x="3507" y="5555" width="10.6735" height="1558.72"/>
  <rect class="fil4" transform="matrix(0.558714 -0.826349 0.826349 0.558713 2220.95 4841.8)" width="10.7" height="1399.38"/>
  <rect class="fil4" transform="matrix(0.532678 -0.843407 0.843407 0.532678 2344.13 6617.37)" width="10.7" height="449.51"/>
  <g id="_912070544">
   <path class="fil0" d="M9443 8747c0,-2 0,-2 -3,-2l-301 -203 0 -742 0 0 0 0c0,-3 0,-3 -3,-3l-969 -619c-2,-3 -2,-3 -5,0l-51 24 0 0 0 0c-3,0 -3,3 -3,3l0 755 -298 139 0 0 0 0c-3,0 -3,3 -3,3l0 427c0,2 3,2 3,2l32 19 0 40c0,3 0,3 2,3 0,0 16,18 46,18 18,0 24,-8 29,-13l1073 667 0 0 0 32 0 3c0,3 13,24 37,24 16,0 30,-8 38,-13l42 24 3 0 3 0 0 0 328 -161c3,0 3,-2 3,-5l-3 -422 0 0 0 0z"/>
   <g>
    <path class="fil4" d="M9099 8707c0,0 -3,0 -3,0l-982 -614c-3,0 -3,-2 -3,-5l0 -889c0,-2 0,-2 3,-5 2,0 2,0 5,0l982 617c3,0 3,2 3,5l0 883c0,6 0,6 -5,8 2,0 2,0 0,0zm-977 -622l971 606 0 -872 -971 -612 0 878z"/>
    <path class="fil4" d="M9101 7821l-5 -8 29 -16 -958 -614 -48 22 -5 -8 51 -24c2,0 2,0 5,0l969 619c2,0 2,3 2,5 0,3 0,3 -2,6l-38 18z"/>
    <path class="fil4" d="M9101 8707l-5 -8 32 -16 0 -883 11 0 0 886c0,3 0,3 -3,5l-35 16z"/>
    <polygon class="fil4" points="7818,8101 7812,8093 8116,7955 8119,7963 "/>
    <path class="fil4" d="M9117 8913l-5 -8 315 -158 -294 -200 6 -8 301 206c3,0 3,2 3,5 0,3 0,3 -3,5l-323 158z"/>
    <path class="fil4" d="M9032 9223c0,0 -3,0 -3,0l-1139 -729c-3,0 -3,-3 -3,-5l0 -267c0,-3 0,-3 3,-6 2,0 2,0 5,0l1140 721c2,0 2,3 2,5l0 275c0,3 0,3 -5,6 3,0 3,0 0,0zm-1134 -737l1129 723 0 -261 -1129 -716 0 254z"/>
    <path class="fil4" d="M9112 9337c0,0 -3,0 -3,0l-1294 -806c-3,0 -3,-2 -3,-5l0 -427c0,-3 0,-3 3,-6 3,0 3,0 5,0l1300 812c3,0 3,3 3,5l-3 425c-5,-3 -5,0 -8,2 0,0 0,0 0,0zm-1292 -816l1284 800 3 -411 -1287 -803 0 414z"/>
    <path class="fil4" d="M9112 9335l-5 -8 325 -161 0 -419 11 0 0 425c0,2 0,2 -3,5l-328 158z"/>
    <path class="fil4" d="M7892 8609c-29,0 -45,-16 -45,-19 0,0 0,-3 0,-3l0 -40 11 0 0 38c2,2 16,13 37,13 21,0 21,-11 21,-11l11 0c-3,0 -3,22 -35,22z"/>
    <path class="fil4" d="M9032 9321c-24,0 -37,-24 -37,-24 0,0 0,-2 0,-2l0 -32 10 0 0 29c3,3 11,19 27,19 19,0 32,-14 32,-14l8 8c-3,0 -16,16 -40,16z"/>
    <rect class="fil4" transform="matrix(0.909044 -0.41078 0.410781 0.909044 8242.47 8265.2)" width="104.35" height="10.7"/>
    <path class="fil4" d="M8680 8585c0,0 -3,0 -3,0 -3,0 -3,-3 -3,-6l0 -37c0,-3 0,-3 3,-5l93 -46 6 8 -88 43 0 24 117 -56 5 8 -130 67c2,0 2,0 0,0z"/>
    <path class="fil4" d="M8677 8582l-435 -270c-3,0 -3,-2 -3,-5l0 -40c0,-3 0,-3 3,-5 3,0 3,0 5,0l435 272 -5 8 -427 -267 0 27 432 267 -5 13z"/>
    <polygon class="fil4" points="7895,8494 7892,8483 8127,8368 8133,8376 "/>
   </g>
  </g>
  <g id="_912071216">
   <path class="fil4" d="M14845 2238l-357 -227 0 -299 8 5 349 227 0 294zm-347 -235l336 213 0 -267 -336 -219 0 273z"/>
   <rect class="fil4" transform="matrix(0.537167 -0.840614 0.840614 0.537167 14510.7 1985.39)" width="10.7" height="363.89"/>
   <rect class="fil4" transform="matrix(0.537167 -0.840614 0.840614 0.537167 14510.6 1777.26)" width="10.7" height="363.89"/>
   <rect class="fil4" transform="matrix(0.537167 -0.840514 0.840514 0.537167 14510.8 1821.2)" width="10.7" height="363.89"/>
   <rect class="fil4" transform="matrix(0.537167 -0.840614 0.840614 0.537167 14510.2 1860.22)" width="10.7" height="363.89"/>
   <rect class="fil4" transform="matrix(0.537167 -0.840514 0.840514 0.537167 14510.4 1904.16)" width="10.7" height="363.89"/>
   <rect class="fil4" transform="matrix(0.537167 -0.840614 0.840614 0.537167 14512.1 1944.62)" width="10.7" height="363.89"/>
  </g>
  <path class="fil0" d="M2656 2200l-118 -45 0 3 -3 -3 -464 216 0 0c0,0 -3,3 -3,3l0 678c0,24 14,45 38,53l112 43c8,2 19,2 24,-3l0 0 462 -213c8,-6 13,-14 13,-24l0 -614c3,-43 -21,-78 -61,-94z"/>
  <path class="fil4" d="M2239 3148l-5 -11 467 -216c5,-3 8,-8 8,-16l0 -590 11 0 0 590c0,11 -6,19 -14,24l-467 219z"/>
  <rect class="fil4" x="2247" y="2513" width="10.6735" height="627.223"/>
  <polygon class="fil4" points="2253,2515 2250,2507 2714,2288 2717,2296 "/>
  <rect class="fil4" transform="matrix(0.903059 -0.423748 0.423748 0.903059 2248.17 2686.69)" width="513.73" height="10.7"/>
  <rect class="fil4" transform="matrix(0.903059 -0.423748 0.423748 0.903059 2248.76 3089.59)" width="513.73" height="10.7"/>
  <rect class="fil4" transform="matrix(0.903059 -0.423748 0.423748 0.903059 2247.75 3060.46)" width="513.73" height="10.7"/>
  <rect class="fil4" transform="matrix(0.903059 -0.423748 0.423748 0.903059 2247.86 3033.74)" width="513.73" height="10.7"/>
  <rect class="fil4" transform="matrix(0.903059 -0.423748 0.423748 0.903059 2247.97 3007.03)" width="513.73" height="10.7"/>
  <path class="fil4" d="M2439 2494c0,0 -2,0 -2,0 -3,0 -3,-3 -3,-6l0 -34c0,-3 0,-3 3,-6l101 -48c3,0 3,0 6,0 2,0 2,3 2,6l0 34c0,3 0,3 -2,6l-105 48c3,0 0,0 0,0zm6 -38l0 24 90 -42 0 -24 -90 42z"/>
  <path class="fil4" d="M2439 2510c-2,0 -2,0 -5,-3 0,-3 0,-5 3,-8l2 0c3,0 6,0 8,3 0,2 0,5 -2,8l-6 0c3,0 0,0 0,0zm19 -8c-3,0 -3,0 -5,-3 0,-3 0,-5 2,-8l16 -8c3,0 6,0 8,3 0,2 0,5 -2,8l-19 8c3,0 0,0 0,0zm32 -16c-3,0 -3,0 -5,-3 0,-3 0,-5 2,-8l16 -8c3,0 6,0 8,3 0,2 0,5 -2,8l-19 8c3,0 3,0 0,0zm35 -14c-3,0 -3,0 -6,-2 0,-3 0,-6 3,-8l16 -8c3,0 6,0 8,2 0,3 0,6 -2,8l-19 8c0,-2 0,0 0,0z"/>
  <path class="fil4" d="M2229 3150c-3,0 -8,0 -11,-2l-112 -43c0,0 0,0 0,0 -22,-8 -38,-29 -38,-53l0 -678c0,-3 0,-3 3,-6 3,0 3,0 5,0l118 46c37,16 64,50 64,93l0 614c0,3 0,8 -3,11 -2,8 -8,13 -16,16 -2,2 -8,2 -10,2zm-118 -53l112 43c6,2 11,2 14,0 5,-3 8,-6 10,-11 0,-3 0,-5 0,-8l0 -614c0,-37 -21,-69 -56,-83l-109 -42 0 670c-3,18 10,37 29,45l0 0z"/>
  <path class="fil4" d="M2720 2323l-11 0 0 -32c0,-37 -21,-69 -56,-83l-118 -45 3 -11 118 46c37,16 64,50 64,93l0 32z"/>
  <polygon class="fil4" points="2076,2379 2071,2371 2538,2152 2541,2163 "/>
  <path class="fil6" d="M931 1968c-8,0 -16,-3 -24,-8l-597 -374c-22,-13 -27,-40 -14,-61 14,-21 40,-27 62,-13l597 373c22,14 27,40 14,62 -8,13 -24,21 -38,21z"/>
  <path class="fil6" d="M1003 2005l-306 0c-25,0 -46,-21 -46,-45 0,-24 21,-45 46,-45l216 0 0 -179c0,-24 21,-46 45,-46 24,0 45,22 45,46l0 269z"/>
  <path class="fil7" d="M7700 1522c-24,0 -45,-21 -45,-45l-6 -705c0,-24 19,-45 46,-45 0,0 0,0 0,0 24,0 45,21 45,45l5 705c0,27 -21,45 -45,45 0,0 0,0 0,0z"/>
  <path class="fil7" d="M7537 946c-10,0 -24,-6 -32,-14 -18,-18 -18,-45 0,-64l192 -192 190 190c19,18 19,45 0,64 -19,18 -45,18 -64,0l-126 -126 -128 128c-8,8 -21,14 -32,14z"/>
  <path class="fil7" d="M14920 1592c-24,0 -45,-22 -45,-46l-6 -704c0,-24 19,-46 46,-46 0,0 0,0 0,0 24,0 45,22 45,46l5 704c0,24 -18,46 -45,46 0,0 0,0 0,0z"/>
  <path class="fil7" d="M14757 1012c-11,0 -24,-5 -32,-13 -19,-19 -19,-45 0,-64l192 -192 190 189c18,19 18,46 0,64 -19,19 -46,19 -64,0l-126 -125 -128 128c-8,8 -19,13 -32,13z"/>
  <path class="fil7" d="M3056 3353c-8,0 -16,-2 -24,-8l-590 -373c-21,-14 -27,-40 -13,-62 13,-21 40,-27 61,-13l590 374c21,13 27,40 13,61 -8,16 -21,21 -37,21z"/>
  <path class="fil7" d="M5122 4653c-8,0 -16,-3 -24,-8l-833 -526c-21,-13 -27,-40 -13,-61 13,-21 40,-27 61,-13l833 525c21,14 27,40 13,62 -8,13 -21,21 -37,21z"/>
  <path class="fil7" d="M2909 3455c-21,0 -40,-14 -45,-35 -6,-24 10,-48 34,-53l177 -38 -38 -173c-5,-24 11,-48 35,-54 24,-5 48,11 53,35l56 262 -264 56c-3,-3 -5,0 -8,0z"/>
  <path class="fil7" d="M4919 4714c-21,0 -40,-13 -45,-34 -6,-24 10,-48 34,-54l176 -37 -37 -173c-5,-24 11,-48 35,-54 24,-5 48,11 53,35l56 261 -264 56c-3,0 -5,0 -8,0z"/>
  <path class="fil7" d="M6867 5598c-173,0 -347,-48 -499,-144l-53 -35c-21,-13 -27,-40 -13,-61 13,-22 40,-27 61,-14l53 35c246,155 547,174 812,51l58 -27c22,-11 51,0 62,21 10,22 0,51 -22,62l-58 27c-131,56 -267,85 -401,85z"/>
  <path class="fil7" d="M7313 5662c-5,0 -11,0 -16,-3 -24,-8 -37,-34 -27,-58l59 -171 -168 -59c-24,-8 -37,-35 -27,-59 8,-24 35,-37 59,-26l254 88 -89 256c-10,21 -26,32 -45,32z"/>
  <path class="fil7" d="M9019 4682c-16,0 -32,-10 -40,-26 -11,-22 0,-51 21,-62l891 -416c22,-11 51,0 62,21 10,22 0,51 -22,62l-891 416c-8,3 -16,5 -21,5z"/>
  <path class="fil7" d="M9897 4445c-6,0 -11,0 -16,-3 -24,-8 -38,-34 -27,-58l59 -171 -168 -59c-24,-8 -38,-35 -27,-59 8,-24 35,-37 59,-26l253 88 -88 256c-8,21 -27,32 -45,32z"/>
  <path class="fil7" d="M11554 3492c-16,0 -32,-11 -40,-27 -10,-21 0,-50 22,-61l982 -459c21,-11 50,0 61,21 11,22 0,51 -21,62l-985 461c-5,3 -13,3 -19,3z"/>
  <path class="fil7" d="M12515 3228c-5,0 -11,0 -16,-3 -24,-8 -37,-35 -27,-59l59 -170 -168 -59c-24,-8 -37,-35 -27,-59 8,-24 35,-37 59,-27l254 89 -91 256c-8,18 -24,32 -43,32z"/>
  <path class="fil7" d="M13708 2499c-16,0 -32,-11 -40,-27 -11,-21 0,-50 21,-61l700 -328c21,-11 50,0 61,21 11,21 0,51 -21,62l-700 328c-8,2 -13,5 -21,5z"/>
  <path class="fil7" d="M14397 2366c-6,0 -11,0 -16,-3 -24,-8 -38,-35 -27,-59l59 -171 -168 -58c-24,-8 -38,-35 -27,-59 11,-24 35,-37 59,-27l253 88 -88 257c-11,18 -27,32 -45,32z"/>
  <path class="fil7" d="M6392 2480c-16,0 -32,-10 -40,-26 -10,-22 0,-51 22,-62l750 -352c21,-11 50,0 61,21 11,22 0,51 -21,62l-753 352c-5,3 -13,5 -19,5z"/>
  <path class="fil7" d="M7129 2323c-5,0 -11,0 -16,-3 -24,-8 -37,-34 -27,-58l59 -171 -168 -59c-24,-8 -38,-35 -27,-59 8,-24 35,-37 59,-26l253 88 -88 256c-8,19 -26,32 -45,32z"/>
 </g>
</svg>
