<svg xmlns="http://www.w3.org/2000/svg" viewBox="0 0 79.81 82.94"><title>Бризер-O2. Бризер</title><path d="M58.87,82.94H20.95A21,21,0,0,1,0,62V10.08A10.09,10.09,0,0,1,10.08,0H69.73A10.09,10.09,0,0,1,79.81,10.08V62A21,21,0,0,1,58.87,82.94ZM10.08,1.4A8.69,8.69,0,0,0,1.4,10.08V62A19.57,19.57,0,0,0,20.95,81.54H58.87A19.57,19.57,0,0,0,78.41,62V10.08A8.69,8.69,0,0,0,69.73,1.4Z" fill="#231f20"/><path d="M78.18,57.11H1.63a.7.7,0,1,1,0-1.4H78.18a.7.7,0,1,1,0,1.4Z" fill="#231f20"/><path d="M23.14,21.16a3.24,3.24,0,1,1,3.24-3.24A3.25,3.25,0,0,1,23.14,21.16Zm0-5.09A1.85,1.85,0,1,0,25,17.91,1.85,1.85,0,0,0,23.14,16.07Z" fill="#231f20"/><path d="M78.18,62.57H1.63a.7.7,0,1,1,0-1.4H78.18a.7.7,0,1,1,0,1.4Z" fill="#231f20"/><path d="M78.18,68H1.63a.7.7,0,1,1,0-1.4H78.18a.7.7,0,1,1,0,1.4Z" fill="#231f20"/><path d="M46.68,21.16H33.13a3.24,3.24,0,1,1,0-6.49H46.68a3.24,3.24,0,1,1,0,6.49ZM33.13,16.07a1.85,1.85,0,0,0,0,3.69H46.68a1.85,1.85,0,0,0,0-3.69Z" fill="#231f20"/></svg>