<?xml version="1.0" encoding="UTF-8"?>
<!DOCTYPE svg PUBLIC "-//W3C//DTD SVG 1.1//EN" "http://www.w3.org/Graphics/SVG/1.1/DTD/svg11.dtd">
<!-- Creator: CorelDRAW 2017 -->
<svg xmlns="http://www.w3.org/2000/svg" xml:space="preserve" width="140mm" height="115mm" version="1.1" style="shape-rendering:geometricPrecision; text-rendering:geometricPrecision; image-rendering:optimizeQuality; fill-rule:evenodd; clip-rule:evenodd"
viewBox="0 0 14000 11500"
 xmlns:xlink="http://www.w3.org/1999/xlink">
 <defs>
  <style type="text/css">
   <![CDATA[
    .str0 {stroke:#2B2A29;stroke-width:200;stroke-miterlimit:22.9256}
    .str1 {stroke:#2B2A29;stroke-width:20;stroke-miterlimit:22.9256}
    .fil2 {fill:none}
    .fil0 {fill:#FEFEFE}
    .fil3 {fill:#B0D23D}
    .fil1 {fill:#B4D442}
   ]]>
  </style>
 </defs>
 <g id="Слой_x0020_1">
  <metadata id="CorelCorpID_0Corel-Layer"/>
  <path class="fil0 str0" d="M11852.24 462.08c5.21,-162.83 26.09,-393.03 535.09,-238.5 854.36,259.37 1134.8,1366.66 1051.7,2172.99 -54.53,529.14 -314.2,952.65 -730.81,520.19 -125.83,10.49 -775.6,-1564.77 -796.02,-1780.26 -11.15,-117.65 -61.33,-631.3 -59.96,-674.42z"/>
  <path class="fil0 str0" d="M5259.96 1559.76c1981.27,-370.09 4493.31,-664.27 6771.88,-1134.27 0,0 820.84,208.71 1016.41,910.44 302.29,1084.61 -104.65,1488 -282.28,1557.36 -546.69,213.46 -6367.66,2283.04 -6648.88,2315.94 -47.85,5.59 -679.02,-3120.35 -857.13,-3649.47z"/>
  <path class="fil0 str0" d="M2134.15 1583.76c316.21,-100.58 1034.77,-260.19 2390.94,-336.73 943.43,-53.25 1848.55,1760.51 1788.21,2898.65 -61.85,1166.45 -493.57,1720.05 -744.16,1866.15 -582.99,339.92 -2014.28,624.08 -2014.28,624.08 -546.73,-1561.18 -760.97,-2544.13 -1432.11,-4907.02 -12.14,-42.76 -26.25,-133.15 11.4,-145.13z"/>
  <path class="fil0 str0" d="M636.91 5082.56c457.34,1456.77 2567.02,2179.08 3717.01,1118.68 971.18,-895.53 1060.61,-2739.21 -74.07,-4082.01 -688.37,-814.63 -1802.34,-743.89 -2470.41,-392.09 -1166.03,614.02 -1587.23,2034.46 -1172.53,3355.42z"/>
  <path class="fil1 str0" d="M2454.25 3704.09c67.27,-21.39 220.14,-55.35 508.66,-71.64 200.72,-11.32 393.28,374.55 380.44,616.69 -13.16,248.16 -105,365.93 -158.32,397.02 -124.03,72.31 -428.53,132.77 -428.53,132.77 -116.32,-332.14 -161.9,-541.26 -304.68,-1043.96 -2.58,-9.1 -5.58,-28.33 2.43,-30.88z"/>
  <path class="fil1 str0" d="M2135.71 4448.46c97.3,309.92 546.13,463.59 790.79,237.99 206.61,-190.52 225.64,-582.76 -15.76,-868.44 -146.45,-173.31 -383.44,-158.26 -525.58,-83.41 -248.07,130.63 -337.68,432.82 -249.45,713.86z"/>
  <path class="fil2 str0" d="M2102.65 4226.75c145.14,891.55 -212.79,7060.27 643.33,7054.14 1095.22,-7.84 211.19,-6098.76 339.81,-7027.2"/>
  <path class="fil3 str1" d="M7650.64 5527.01c-22.19,169.83 -127.96,771.35 -127.96,771.35 359.95,-153.62 3032.3,-1405.53 3022.3,-1372.34 -205.41,682.31 544.83,391.17 612.76,664.19 57.16,229.79 -3112.38,931.74 -3502.05,1044.74 -14.44,-2.81 793.77,376.23 1039.81,544.4 119.13,81.41 -2863.89,-250.5 -2874.02,-282.4 -14.83,-46.66 1699.38,-1110.12 1829.16,-1369.94z"/>
 </g>
</svg>
