<?xml version="1.0" encoding="UTF-8"?>
<!DOCTYPE svg PUBLIC "-//W3C//DTD SVG 1.1//EN" "http://www.w3.org/Graphics/SVG/1.1/DTD/svg11.dtd">
<!-- Creator: CorelDRAW 2017 -->
<svg xmlns="http://www.w3.org/2000/svg" xml:space="preserve" width="190mm" height="116mm" version="1.1" style="shape-rendering:geometricPrecision; text-rendering:geometricPrecision; image-rendering:optimizeQuality; fill-rule:evenodd; clip-rule:evenodd"
viewBox="0 0 19000 11600"
 xmlns:xlink="http://www.w3.org/1999/xlink">
 <defs>
  <style type="text/css">
   <![CDATA[
    .str0 {stroke:#2B2A29;stroke-width:200;stroke-miterlimit:22.9256}
    .str2 {stroke:#2B2A29;stroke-width:20;stroke-miterlimit:22.9256}
    .str1 {stroke:black;stroke-width:20;stroke-miterlimit:22.9256}
    .fil0 {fill:#FEFEFE}
    .fil1 {fill:#B0D23D}
   ]]>
  </style>
 </defs>
 <g id="Слой_x0020_1">
  <metadata id="CorelCorpID_0Corel-Layer"/>
  <g id="_1085014128">
   <path class="fil0 str0" d="M17165.99 2412.78c5.21,-162.83 26.09,-393.03 535.09,-238.5 854.36,259.37 1134.8,1366.66 1051.7,2172.99 -54.53,529.14 -314.2,952.65 -730.81,520.19 -125.83,10.49 -775.6,-1564.77 -796.02,-1780.26 -11.15,-117.65 -61.33,-631.3 -59.96,-674.42z"/>
   <path class="fil0 str0" d="M10573.71 3510.46c1981.27,-370.09 4493.31,-664.27 6771.88,-1134.27 0,0 820.84,208.71 1016.41,910.44 302.29,1084.61 -104.65,1488 -282.28,1557.36 -546.69,213.46 -6367.66,2283.04 -6648.88,2315.94 -47.85,5.59 -679.02,-3120.35 -857.13,-3649.47z"/>
  </g>
  <path class="fil0 str0" d="M417.44 2203.58c256.4,-41.88 6330.17,-75.79 9175.93,-184.71 63.98,-2.44 -33.11,40.3 -40.55,2703.6 -8.89,3181.53 352.08,6264.14 352.08,6264.14 -1416.09,343.95 -9125.27,589.23 -9211.67,-158.76 -350.09,-3030.8 -509.14,-5211.48 -275.79,-8624.27z"/>
  <path class="fil0 str0" d="M9906.6 2169.58c1.44,-0.57 1895.16,-1385.13 1895.16,-1385.13 -2402.23,0 -7933.71,-237.15 -9075.41,-39.23 -90.61,15.7 -1147.13,451.89 -2318.3,1450.82 -2.99,2.55 6766.29,-189.3 9498.55,-26.46z"/>
  <path class="fil0 str0" d="M11801.76 784.45c0.31,-0.16 11.2,7898.7 -50.78,8409.32 -23.84,196.37 -1846.08,1792.84 -1846.08,1792.84 -243.05,-1860.64 -519.47,-5135.64 -293.37,-8832.57 0,0 1557.27,-1041.64 2190.23,-1369.59z"/>
  <path class="fil1 str1" d="M4371.41 6611.26c0,-669.97 909.96,-693.06 909.96,0 0,385.6 -536.46,525.92 -769.45,297.59 -62.69,-61.42 -140.51,-181.63 -140.51,-297.59zm477.75 -3471.32l175.54 0c326.97,12.89 639.33,99.79 884.09,282.54 603.46,450.53 387.48,1672.53 136.5,2233.91 -174.51,390.3 -259.1,592.56 -561.7,752.66l0 337.03c33.51,-38.61 41.79,-46.13 67.71,-100.82 30.81,-65.01 13.73,-17.08 33.39,-101.39 195.05,16.2 373.98,134.78 572.93,134.78 809.54,0 846.95,-946.19 1607.85,-529.38 89.32,48.96 188.32,124.44 246.43,191.71 480.9,556.92 162.25,1650.44 -161.81,2164.97 -250.46,397.7 -546.89,632.95 -1052.11,632.95 -537.82,0 -1441.46,-735.77 -1733.63,-1164.76 -133.19,-195.61 -230,-403.95 -288.52,-655.13 126.71,-29.53 138.25,-13.81 202.22,-101.1 -250.9,0 -328.8,17.39 -505.54,-67.44 -89.88,187.29 -7.08,69.62 -159.98,210.78 -617.63,570.14 -63.45,1249.19 -252.92,1633.52 -94.19,191.03 -454.59,380.06 -732.99,380.06 -213.24,0 -501.2,-127.57 -676.43,-233.54 -100.19,-60.58 -162.96,-104.77 -256.79,-181.35 -87.45,-71.38 -168.57,-120.34 -237.12,-200.98 -69.58,-81.93 -122.6,-157.36 -192.34,-245.81 -419.36,-532.04 -651.75,-1260.69 -146.77,-1793.62 117.35,-123.83 355.75,-278.52 526.72,-349.53 456.97,-189.88 1416.1,-594.86 1960.08,-230.56 77.31,-115.4 81.29,-104.53 202.22,-168.54 -86.66,-372.06 -252.85,-677.58 -620.06,-829.12 -643.11,-265.42 -795.44,-215.47 -795.44,-855.99 0,-602.86 897.3,-1112.61 1758.47,-1145.85z"/>
  <path class="fil1 str2" d="M15207.24 6556.62c0,171.27 -26.97,781.42 -26.97,781.42 337.03,-198.95 2824.69,-1786.48 2819.08,-1752.27 -115.3,703.16 590.9,317.29 693.63,579.22 86.44,220.44 -2965.46,1327.05 -3337.21,1489.58 -14.69,-0.92 835.82,270.23 1101.57,405.11 128.67,65.3 -2872.21,122.6 -2886.39,92.28 -20.75,-44.35 1541.26,-1320.9 1636.29,-1595.34z"/>
  <path class="fil1 str2" d="M15816.76 1990.96c77.69,-150.9 378.22,-676.25 378.22,-676.25 -387.18,22.41 -3299.1,292.69 -3278.64,265.1 420.55,-567.23 -376.71,-547.6 -348.4,-824.97 23.84,-233.44 3214.75,175.95 3616.01,201.38 12.52,7.47 -613.84,-617.23 -786.8,-856.62 -83.74,-115.89 2586.22,1194.86 2584.97,1228.01 -1.84,48.48 -1957.14,464.66 -2165.36,663.35z"/>
 </g>
</svg>
