<?xml version="1.0" encoding="UTF-8"?>
<!DOCTYPE svg PUBLIC "-//W3C//DTD SVG 1.1//EN" "http://www.w3.org/Graphics/SVG/1.1/DTD/svg11.dtd">
<!-- Creator: CorelDRAW 2017 -->
<svg xmlns="http://www.w3.org/2000/svg" xml:space="preserve" width="190mm" height="150mm" version="1.1" style="shape-rendering:geometricPrecision; text-rendering:geometricPrecision; image-rendering:optimizeQuality; fill-rule:evenodd; clip-rule:evenodd"
viewBox="0 0 19000 15000"
 xmlns:xlink="http://www.w3.org/1999/xlink">
 <defs>
  <style type="text/css">
   <![CDATA[
    .str0 {stroke:#2B2A29;stroke-width:200;stroke-miterlimit:22.9256}
    .str2 {stroke:#2B2A29;stroke-width:20;stroke-miterlimit:22.9256}
    .str1 {stroke:black;stroke-width:20;stroke-miterlimit:22.9256}
    .fil0 {fill:#FEFEFE}
    .fil1 {fill:#B0D23D}
   ]]>
  </style>
 </defs>
 <g id="Слой_x0020_1">
  <metadata id="CorelCorpID_0Corel-Layer"/>
  <g id="_1197476592">
   <path class="fil0 str0" d="M17324.78 4064.41c5.21,-162.83 26.09,-393.03 535.09,-238.5 854.36,259.37 1134.8,1366.66 1051.7,2172.99 -54.53,529.14 -314.2,952.65 -730.81,520.19 -125.83,10.49 -775.6,-1564.77 -796.02,-1780.26 -11.15,-117.65 -61.33,-631.3 -59.96,-674.42z"/>
   <path class="fil0 str0" d="M10732.5 5162.09c1981.27,-370.09 4493.31,-664.27 6771.88,-1134.27 0,0 820.84,208.71 1016.41,910.44 302.29,1084.61 -104.65,1488 -282.28,1557.36 -546.69,213.46 -6367.66,2283.04 -6648.88,2315.94 -47.85,5.59 -679.02,-3120.35 -857.13,-3649.47z"/>
  </g>
  <path class="fil0 str0" d="M449.38 1707.63c839.5,-226.46 9505.7,-91.17 9498.55,-26.46 -157.65,1426.15 -318.17,3904.86 -325.62,6568.16 -8.89,3181.54 352.08,6264.14 352.08,6264.14 -1416.09,343.95 -9103.97,586.49 -9211.67,-158.76 -629.29,-4354.6 -846.05,-9864.71 -313.34,-12647.08z"/>
  <path class="fil0 str0" d="M9906.64 1674.78c1.44,-0.57 1895.16,-1385.13 1895.16,-1385.13 -2402.23,0 -7933.71,-237.15 -9075.41,-39.23 -90.61,15.7 -1147.13,451.89 -2318.3,1450.82 -2.99,2.55 6766.29,-189.3 9498.55,-26.46z"/>
  <path class="fil0 str0" d="M11801.8 289.65c0.41,-0.21 -190.24,11720.11 -239.31,12695.56 -564.28,625.67 -1556.97,1684.49 -1588.1,1528.26 -375.16,-1882.53 -509.75,-9320.53 -53.62,-12848.95 0,0 1248.02,-1046.82 1881.03,-1374.87z"/>
  <path class="fil1 str1" d="M4440.9 10138.12c0,-669.97 909.96,-693.06 909.96,0 0,385.6 -536.46,525.92 -769.45,297.59 -62.69,-61.42 -140.51,-181.63 -140.51,-297.59zm477.75 -3471.32l175.54 0c326.97,12.89 639.33,99.79 884.09,282.54 603.46,450.53 387.48,1672.53 136.5,2233.91 -174.51,390.3 -259.1,592.56 -561.7,752.66l0 337.03c33.51,-38.61 41.79,-46.13 67.71,-100.82 30.81,-65.01 13.73,-17.08 33.39,-101.39 195.05,16.2 373.98,134.78 572.93,134.78 809.54,0 846.95,-946.19 1607.85,-529.38 89.32,48.96 188.32,124.44 246.43,191.71 480.9,556.92 162.25,1650.44 -161.81,2164.97 -250.46,397.7 -546.89,632.95 -1052.11,632.95 -537.82,0 -1441.46,-735.77 -1733.63,-1164.76 -133.19,-195.61 -230,-403.95 -288.52,-655.13 126.71,-29.53 138.25,-13.81 202.22,-101.11 -250.9,0 -328.8,17.4 -505.54,-67.43 -89.88,187.29 -7.08,69.62 -159.98,210.78 -617.63,570.14 -63.45,1249.19 -252.92,1633.52 -94.19,191.02 -454.59,380.06 -732.99,380.06 -213.24,0 -501.2,-127.57 -676.43,-233.54 -100.19,-60.58 -162.96,-104.77 -256.79,-181.35 -87.45,-71.38 -168.57,-120.34 -237.12,-200.98 -69.58,-81.93 -122.6,-157.36 -192.34,-245.81 -419.36,-532.04 -651.75,-1260.69 -146.77,-1793.62 117.35,-123.83 355.75,-278.52 526.72,-349.53 456.97,-189.88 1416.1,-594.86 1960.08,-230.56 77.31,-115.4 81.29,-104.53 202.22,-168.54 -86.66,-372.07 -252.85,-677.58 -620.06,-829.12 -643.11,-265.42 -795.44,-215.47 -795.44,-855.99 0,-602.86 897.3,-1112.61 1758.47,-1145.85z"/>
  <path class="fil1 str2" d="M14468.92 8794.08c-26.48,169.21 -147.47,767.85 -147.47,767.85 363.74,-144.45 3066.94,-1328.24 3056.11,-1295.31 -222.63,676.88 534.74,404.84 595.73,679.5 51.32,231.16 -3134.99,852.58 -3527.4,955.67 -14.37,-3.18 783.99,396.22 1025.69,570.56 117.02,84.41 -2856.62,-322.97 -2865.95,-355.12 -13.64,-47.02 1726.97,-1066.71 1863.29,-1323.15z"/>
 </g>
</svg>
